<svg width="40" height="38" viewBox="0 0 40 38" fill="none" xmlns="http://www.w3.org/2000/svg">
<path d="M20 0.00133183C31.046 0.00133092 40 8.38697 40 18.7319C40 29.0768 31.046 37.4624 20 37.4624C8.95397 37.4624 -2.14705e-06 29.0768 -3.11273e-06 18.7319C-4.0784e-06 8.38697 8.95397 0.00133273 20 0.00133183ZM20 35.4248C29.7908 35.4248 37.8243 27.9012 37.8243 18.7319C37.8243 9.56252 29.7908 2.03897 20 2.03897C10.2092 2.03897 2.17573 9.56253 2.17573 18.7319C2.17573 27.9012 10.2092 35.4248 20 35.4248Z" fill="white" fill-opacity="0.59"/>
<path d="M22.7615 7.99498L24.2677 9.48404L15.3138 18.7317L24.2677 27.9794L22.7615 29.4685L11.297 18.7317L22.7615 7.99498Z" fill="white" fill-opacity="0.59"/>
</svg>
