<svg width="480" height="489" viewBox="0 0 480 489" fill="none" xmlns="http://www.w3.org/2000/svg">
<g clip-path="url(#clip0_20_25)">
<path d="M225 -0.0610352V30.5015H255V-0.0610352H225ZM102.12 51.7424L80.91 73.3501L102.12 94.9578L123.33 73.3501L102.12 51.7424ZM377.88 51.7424L356.67 73.3501L377.88 94.9578L399.09 73.3501L377.88 51.7424ZM240.81 61.064C158.85 61.064 91.05 124.665 91.05 204.096C91.05 258.681 116.37 295.967 139.5 323.901C151.08 337.838 162.15 349.88 169.68 360.546C177.21 371.243 180.87 379.861 180.87 388.541V489.122H300.75V388.541C300.75 379.861 304.47 371.121 312 360.363C319.56 349.605 330.57 337.532 342.12 323.535C365.28 295.509 390.6 258.284 390.6 204.096C390.6 124.665 322.8 61.064 240.81 61.064ZM240.81 91.6265C307.71 91.6265 360.6 142.421 360.6 204.096C360.6 248.84 340.95 277.508 319.17 303.883C308.28 317.086 296.88 329.342 287.58 342.636C278.28 355.931 270.78 370.968 270.78 388.541V402.447C269.869 402.279 268.945 402.197 268.02 402.203H255V275.001H270V244.439H210V275.001H225V402.203H211.98C211.61 402.189 211.24 402.189 210.87 402.203V388.541C210.87 370.968 203.37 355.931 194.07 342.697C184.77 329.464 173.31 317.331 162.42 304.189C140.67 277.935 121.05 249.329 121.05 204.096C121.05 142.421 173.94 91.6265 240.81 91.6265ZM30 183.314V213.876H60V183.314H30ZM420 183.314V213.876H450V183.314H420ZM270.75 432.521V458.56H210.9V432.704C210.92 432.704 210.94 432.704 210.96 432.704C211.309 432.737 211.659 432.757 212.01 432.765H268.05C268.965 432.769 269.879 432.687 270.78 432.521H270.75Z" fill="white"/>
</g>
<defs>
<clipPath id="clip0_20_25">
<rect width="480" height="489" fill="white"/>
</clipPath>
</defs>
</svg>
