<svg width="695" height="602" viewBox="0 0 695 602" fill="none" xmlns="http://www.w3.org/2000/svg">
<path opacity="0.37" d="M136.71 472.372C137.886 475.283 139.186 478.194 140.609 480.981C161.775 522.538 204.725 548.737 250.522 553.444C287.16 557.16 322.807 545.206 353.442 525.697C384.014 506.25 408.522 478.875 442.498 464.63C490.399 444.625 543.808 428.832 581.374 386.469C624.077 338.346 640.539 265.388 620.425 203.825C600.869 143.749 535.949 124.302 485.51 97.856C394.844 50.2286 269.274 18.5802 174.895 74.5068C61.8262 141.458 82.373 293.444 118.206 398.918C126.375 422.948 127.365 448.837 136.71 472.372Z" fill="#CCE9FF"/>
<path d="M194.39 187.599L194.204 186.422H193.028C170.13 186.422 162.703 179.052 162.642 178.99L161.651 177.875L160.661 178.99C160.599 179.052 153.235 186.422 130.274 186.422H129.098L128.913 187.599C128.851 187.97 124.024 224.883 161.032 243.835L161.651 244.144L162.27 243.835C199.403 224.883 194.39 187.97 194.39 187.599V187.599ZM188.82 210.452C184.24 223.706 175.081 233.987 161.589 241.048C148.098 233.987 138.939 223.706 134.359 210.452C131.017 200.729 131.203 192.244 131.45 189.209C150.512 188.961 158.99 183.883 161.589 181.777C164.189 183.821 172.667 188.961 191.729 189.209C191.976 192.306 192.162 200.729 188.82 210.452ZM230.718 140.157L229.418 136.751C228.243 136.627 227.129 136.317 226.015 135.946L223.353 138.423L215.679 132.911L217.165 129.566C216.422 128.637 215.803 127.646 215.308 126.593L211.657 126.47L210.109 117.118L213.513 115.817C213.637 114.64 213.947 113.525 214.318 112.411L211.842 109.747L217.35 102.006L220.692 103.492C221.621 102.749 222.611 102.129 223.663 101.634L223.787 97.9799L233.132 96.4315L234.431 99.8379C235.607 99.9618 236.721 100.271 237.835 100.643L240.496 98.1657L248.17 103.678L246.685 107.022C247.428 107.951 248.047 108.942 248.542 109.995L252.193 110.119L253.74 119.471L250.337 120.772C250.151 121.948 249.903 123.063 249.532 124.178L252.008 126.841L246.499 134.583L243.158 133.097C242.229 133.84 241.239 134.459 240.187 134.955L240.063 138.609L230.718 140.157ZM225.396 132.973L226.138 133.282C227.5 133.84 228.985 134.149 230.471 134.273L231.275 134.335L232.389 137.246L237.526 136.379L237.65 133.282L238.392 132.973C239.754 132.353 240.991 131.548 242.167 130.619L242.786 130.124L245.633 131.424L248.666 127.213L246.499 124.921L246.809 124.178C247.366 122.815 247.675 121.329 247.799 119.843L247.861 119.037L250.77 117.923L249.903 112.782L246.809 112.658L246.499 111.915C245.881 110.553 245.076 109.314 244.148 108.137L243.653 107.518L244.952 104.669L240.744 101.634L238.454 103.74L237.711 103.43C236.35 102.873 234.865 102.563 233.379 102.439L232.575 102.377L231.461 99.4663L226.324 100.333L226.2 103.43L225.458 103.74C224.096 104.359 222.858 105.164 221.683 106.093L221.064 106.589L218.217 105.288L215.184 109.5L217.35 111.791L217.041 112.534C216.484 113.897 216.174 115.383 216.051 116.87L215.989 117.675L213.08 118.79L213.947 123.93L217.041 124.054L217.35 124.797C217.969 126.16 218.774 127.399 219.702 128.575L220.197 129.195L218.898 132.044L223.106 135.078L225.396 132.973ZM231.832 128.637C229.728 128.637 227.624 127.956 225.891 126.717C221.249 123.435 220.197 116.994 223.477 112.349C226.757 107.704 233.194 106.651 237.835 109.933C240.063 111.543 241.548 113.897 242.044 116.622C242.477 119.347 241.858 122.072 240.311 124.302C238.702 126.532 236.35 128.018 233.627 128.513C232.946 128.575 232.389 128.637 231.832 128.637V128.637ZM231.832 110.614C229.418 110.614 227.067 111.729 225.581 113.835C224.406 115.507 223.91 117.551 224.282 119.595C224.653 121.639 225.705 123.373 227.376 124.55C229.047 125.726 231.089 126.222 233.132 125.85C235.174 125.479 236.907 124.426 238.083 122.754C239.259 121.081 239.754 119.037 239.382 116.994C239.011 114.95 237.959 113.216 236.288 112.039C234.926 111.11 233.379 110.614 231.832 110.614V110.614ZM527.408 241.11L524.499 233.492C521.405 233.12 518.311 232.439 515.402 231.386L509.461 236.96L493.37 225.502L496.712 218.07C494.793 215.655 493.122 212.992 491.761 210.143L483.654 209.895L480.373 190.386L487.986 187.475C488.357 184.378 489.038 181.281 490.09 178.37L484.52 172.425L495.969 156.322L503.396 159.666C505.809 157.746 508.471 156.074 511.317 154.712L511.565 146.598L531.06 143.316L533.968 150.934C537.063 151.305 540.157 151.986 543.066 153.039L549.007 147.465L565.098 158.923L561.756 166.355C563.674 168.771 565.345 171.434 566.707 174.283L574.814 174.53L578.094 194.04L570.482 196.951C570.111 200.047 569.43 203.144 568.378 206.055L573.948 212.001L562.499 228.104L555.072 224.759C552.658 226.679 549.997 228.351 547.15 229.714L546.903 237.827L527.408 241.11V241.11ZM514.536 227.422L515.526 227.794C518.806 229.033 522.272 229.838 525.799 230.147L526.913 230.271L529.574 237.208L543.437 234.854L543.685 227.422L544.675 226.989C547.893 225.564 550.926 223.644 553.649 221.353L554.453 220.671L561.261 223.706L569.43 212.248L564.355 206.798L564.727 205.807C565.964 202.525 566.769 199.056 567.078 195.526L567.14 194.411L574.072 191.748L571.72 177.875L564.293 177.627L563.86 176.636C562.437 173.416 560.518 170.381 558.228 167.656L557.548 166.851L560.58 160.038L549.131 151.863L543.685 156.941L542.695 156.57C539.414 155.331 535.949 154.526 532.421 154.216L531.307 154.154L528.646 147.218L514.783 149.571L514.536 157.003L513.545 157.437C510.327 158.861 507.295 160.781 504.572 163.073L503.767 163.754L496.959 160.719L488.914 172.177L493.989 177.627L493.617 178.618C492.38 181.901 491.575 185.369 491.266 188.899L491.204 190.014L484.272 192.677L486.624 206.55L494.051 206.798L494.484 207.789C495.907 211.01 497.826 214.044 500.116 216.77L500.796 217.575L497.764 224.387L509.213 232.563L514.536 227.422V227.422ZM529.141 214.664C524.623 214.664 520.105 213.301 516.145 210.514C506.057 203.33 503.705 189.271 510.884 179.176C518.063 169.08 532.112 166.727 542.199 173.911C552.287 181.096 554.639 195.155 547.46 205.25C543.066 211.381 536.134 214.664 529.141 214.664ZM529.203 173.23C523.262 173.23 517.382 176.017 513.731 181.219C510.76 185.369 509.646 190.386 510.451 195.402C511.317 200.419 514.04 204.754 518.187 207.727C526.727 213.797 538.61 211.815 544.675 203.268C547.584 199.118 548.76 194.102 547.955 189.085C547.089 184.068 544.365 179.733 540.219 176.76C536.815 174.345 532.978 173.23 529.203 173.23ZM226.077 380.462C223.106 372.1 219.702 362.686 223.477 353.025C228.552 340.019 217.784 333.33 208.315 327.322C200.146 322.243 192.471 317.413 195.071 309.423C197.918 300.752 197.732 294.063 194.514 289.666C191.791 285.95 186.963 283.968 180.527 284.03C175.39 284.092 170.811 277.775 165.922 271.148C160.166 263.344 154.287 255.293 146.86 257.089C145.561 257.398 144.508 258.142 143.89 259.318C141.29 264.211 145.375 275.855 149.769 288.242C154.472 301.619 159.857 316.731 156.329 323.172C152.492 330.233 159.423 336.674 166.788 343.549C174.586 350.795 183.436 359.032 181.084 369.375C178.856 379.037 178.361 382.629 179.723 384.735C180.775 386.407 182.941 386.779 186.221 387.398C188.449 387.832 191.296 388.327 194.761 389.442C209.676 394.087 214.008 403.749 214.07 403.873L214.256 404.306L214.689 404.244C221.868 403.129 226.077 401.086 228.057 397.803C228.181 397.617 228.243 397.432 228.366 397.246C230.471 392.848 228.428 387.088 226.077 380.462V380.462Z" fill="#46FFBD" fill-opacity="0.7"/>
<path d="M187.953 362.005C190.429 365.845 192.223 369.19 192.038 373.897C191.914 378.294 191.233 382.629 190.862 386.965C190.8 387.894 190.738 388.761 190.676 389.628C189.439 388.575 188.263 387.522 187.025 386.469C186.468 386.407 185.911 386.407 185.292 386.407C187.025 387.832 188.82 389.38 190.553 390.928C190.367 393.963 190.305 396.998 190.305 400.033C190.305 401.829 190.243 403.749 190.367 405.545C188.758 404.554 187.087 403.563 185.54 402.572C180.712 399.599 176.195 396.812 172.729 395.326C170.068 394.211 167.097 393.22 164.25 392.291C156.824 389.876 149.211 387.398 146.674 382.134C145.374 379.409 145.498 376.126 147.045 372.162C150.944 361.943 147.293 360.209 141.166 357.236C136.71 355.069 130.645 352.158 124.58 344.787C121.919 341.567 119.567 338.78 117.463 336.364C111.212 328.994 107.747 324.969 108.18 322.615C108.304 322.058 108.613 321.562 109.232 321.067C109.541 320.819 109.913 320.571 110.408 320.323C112.76 319.023 115.111 320.014 117.772 321.129C121.362 322.615 125.756 324.535 131.883 321.376C136.71 318.899 142.094 316.607 145.313 318.465C147.54 319.704 148.84 322.925 149.273 328.189C149.397 329.861 149.954 331.038 150.882 331.719C152.244 332.71 154.348 332.586 156.762 332.091C158.433 334.383 160.599 335.497 163.198 336.426C166.849 337.727 169.573 338.904 172.234 341.877C177.927 348.318 183.435 354.883 187.953 362.005V362.005Z" fill="#46FFBD" fill-opacity="0.7"/>
<path d="M168.211 372.224C164.498 369.747 161.28 363.739 158.185 357.917C153.977 349.99 149.583 341.815 143.58 342C133.925 342.248 125.323 330.852 125.199 330.79L124.395 331.41C124.766 331.905 133.43 343.301 143.58 343.053C148.964 342.929 153.234 350.795 157.257 358.475C160.413 364.359 163.693 370.49 167.592 373.153C169.944 374.702 174.276 377.86 179.413 381.886V380.585C174.895 376.807 170.872 373.958 168.211 372.224V372.224Z" fill="white"/>
<path d="M494.36 448.961C494.36 448.961 499.93 435.087 489.78 415.392C479.569 395.697 471.338 398.732 495.907 383.558C520.477 368.384 496.031 320.695 516.949 314.625C537.867 308.556 556 231.324 571.905 241.172C587.811 251.019 566.583 288.861 577.97 300.257C589.296 311.653 590.843 326.083 567.388 337.789C543.932 349.494 584.035 394.211 552.225 407.836C520.415 421.462 529.574 474.911 494.36 448.961V448.961Z" fill="#46FFBD" fill-opacity="0.7"/>
<path d="M504.076 463.639C504.014 463.453 500.611 445.74 511.441 422.824C522.457 399.475 527.717 373.958 525.551 354.511C524.375 343.982 531.121 339.895 537.619 335.931C544.056 332.029 550.678 327.941 550.306 317.598C549.997 308.246 553.958 286.322 554.082 285.393L555.505 285.64C555.443 285.888 551.42 308.37 551.73 317.536C552.101 328.747 545.108 333.02 538.362 337.108C531.926 341.009 525.923 344.725 526.975 354.325C529.203 373.958 523.88 399.785 512.741 423.382C502.158 445.864 505.438 463.144 505.5 463.329L504.076 463.639V463.639Z" fill="white"/>
<path d="M588.553 348.565C597.403 344.354 606.81 346.274 601.921 355.13C597.032 363.987 589.729 364.668 591.09 371.667C592.452 378.665 596.041 386.283 584.53 390.743C573.019 395.14 567.635 394.397 560.642 407.341C553.586 420.285 551.173 429.885 539.105 426.788C527.036 423.63 537.062 407.713 543.313 401.024C543.313 401.024 551.792 393.839 551.668 380.895C551.544 367.951 546.222 359.28 562.931 360.147C579.641 360.89 582.55 351.414 588.553 348.565V348.565Z" fill="#0E538C"/>
<path d="M537.186 435.831C537.681 434.158 549.316 394.087 558.847 389.752C568.563 385.292 573.824 373.649 576.114 367.146C579.084 358.661 591.771 356.989 592.266 356.927L592.452 358.351C592.328 358.351 580.136 359.961 577.475 367.579C574.628 375.816 569.182 386.593 559.466 391.052C550.554 395.14 538.733 435.831 538.61 436.264L537.186 435.831V435.831ZM230.656 403.563C211.594 398.794 211.347 388.513 211.099 378.604C210.914 370.49 210.728 362.81 200.393 358.103C186.715 351.848 186.406 340.266 186.097 330.047C185.849 322.429 185.663 315.245 179.97 311.343C166.292 301.991 154.719 279.323 154.596 279.075L155.648 278.518C155.772 278.766 167.159 301.124 180.65 310.352C186.839 314.564 187.087 322.058 187.272 329.985C187.582 340.328 187.891 351.105 200.888 356.989C211.842 362.005 212.089 370.428 212.275 378.542C212.523 388.451 212.77 397.865 230.965 402.386L230.656 403.563V403.563Z" fill="white"/>
<path d="M204.973 394.397H518.063V168.213C518.063 164.993 515.464 162.329 512.184 162.329H210.852C207.634 162.329 204.973 164.931 204.973 168.213V394.397Z" fill="#F7F7F7"/>
<path d="M506.409 352.228L216.032 352.228V173.672L506.409 173.672V352.228Z" fill="#0B4870" stroke="white" stroke-width="0.5" stroke-miterlimit="10"/>
<path d="M518.063 360.89H205.096L170.811 489.032H552.287L518.063 360.89Z" fill="#F2F2F2"/>
<path d="M216.917 383.372H236.164C236.969 383.372 237.588 383.992 237.402 384.673L235.545 393.034C235.422 393.53 234.927 393.901 234.308 393.901H214.751C213.947 393.901 213.328 393.282 213.513 392.539L215.679 384.178C215.803 383.744 216.298 383.372 216.917 383.372ZM244.952 383.372H259.496L257.577 393.963H242.724L244.952 383.372ZM266.737 383.372H281.28L279.795 393.963H264.942L266.737 383.372ZM288.583 383.372H303.127L302.013 393.963H287.16L288.583 383.372ZM310.368 383.372H324.911L324.231 393.963H309.378L310.368 383.372ZM332.152 383.372H346.696L346.448 393.963H331.595L332.152 383.372ZM506.676 383.372H484.829L487.181 393.963H509.399L506.676 383.372ZM477.589 383.372H463.045L464.963 393.963H479.817L477.589 383.372ZM455.804 383.372H441.26L442.746 393.963H457.599L455.804 383.372ZM433.958 383.372H419.414L420.528 393.963H435.381L433.958 383.372ZM412.173 383.372H397.63L398.31 393.963H413.163L412.173 383.372ZM390.389 383.372H375.845L376.093 393.963H390.946L390.389 383.372ZM353.999 383.372H368.542L368.728 393.963H353.999V383.372ZM210.543 401.829H240.868L239.135 412.729H208.191L210.543 401.829ZM511.379 401.829H473.875L475.979 412.729H514.288L511.379 401.829ZM466.325 401.829H451.348L453.019 412.729H468.367L466.325 401.829ZM443.798 401.829H428.821L430.059 412.729H445.407L443.798 401.829ZM421.271 401.829H406.294L407.16 412.729H422.447L421.271 401.829ZM398.744 401.829H383.767L384.2 412.729H399.486L398.744 401.829ZM205.963 421.214H237.031L234.741 432.053H203.116L205.963 421.214ZM244.767 421.214H260.301L258.506 432.053H242.663L244.767 421.214ZM268.098 421.214H384.509L384.943 432.053H266.366L268.098 421.214ZM392.307 421.214H407.841L408.707 432.053H392.864L392.307 421.214ZM415.577 421.214H431.111L432.41 432.053H416.567L415.577 421.214ZM438.909 421.214H454.443L456.114 432.053H440.332L438.909 421.214ZM462.179 421.214H477.712L479.817 432.053H464.035L462.179 421.214ZM485.448 421.214H516.516L519.363 432.053H487.738L485.448 421.214ZM376.278 401.829H361.363V412.729H376.526L376.278 401.829ZM353.751 401.829H338.712L338.279 412.729H353.627L353.751 401.829ZM331.224 401.829H316.185L315.319 412.729H330.667L331.224 401.829ZM308.697 401.829H293.658L292.358 412.729H307.707L308.697 401.829ZM286.17 401.829H271.131L269.398 412.729H284.746L286.17 401.829ZM263.642 401.829H248.604L246.5 412.729H261.786L263.642 401.829ZM217.598 376.745L220.073 367.331H227.129L224.839 376.745H217.598ZM234.184 367.331H248.294L246.376 376.745H231.956L234.184 367.331ZM255.411 367.331H269.522L267.913 376.745H253.555L255.411 367.331ZM276.577 367.331H290.687L289.45 376.745H275.092L276.577 367.331ZM297.743 367.331H311.853L310.987 376.745H296.629L297.743 367.331ZM318.908 367.331H333.019L332.524 376.745H318.166L318.908 367.331ZM340.074 367.331H354.184L354.061 376.745H339.703L340.074 367.331ZM361.24 367.331H375.35L375.598 376.745H361.24V367.331ZM382.405 367.331H396.516L397.134 376.745H382.776L382.405 367.331ZM403.571 367.331H417.743L418.671 376.745H404.313L403.571 367.331ZM424.798 367.331H438.909L440.27 376.745H425.912L424.798 367.331ZM445.964 367.331H460.074L461.807 376.745H447.449L445.964 367.331ZM467.13 367.331H481.24L483.344 376.745H468.986L467.13 367.331ZM488.295 367.331H502.406L504.881 376.745H490.523L488.295 367.331Z" fill="#0B4870" stroke="white" stroke-width="0.5" stroke-miterlimit="10"/>
<path d="M542.323 499.003H180.774C175.266 499.003 170.811 494.544 170.811 489.032H552.287C552.287 494.544 547.831 499.003 542.323 499.003ZM405.922 447.598C405.551 445.369 403.571 443.696 401.343 443.696H321.817C319.527 443.696 317.608 445.369 317.237 447.598L312.286 477.636C311.791 480.485 314.019 483.086 316.866 483.086H406.232C409.14 483.086 411.307 480.485 410.811 477.636L405.922 447.598Z" fill="#D3D3D3"/>
<path d="M235.607 188.837H267.975V192.182H235.607V188.837ZM277.072 213.797H300.404V217.141H277.072V213.797ZM304.055 213.797H319.527V217.141H304.055V213.797ZM235.979 276.598H251.451V279.942H235.979V276.598ZM322.622 213.797H360.064V217.141H322.622V213.797ZM235.979 264.025H260.053V267.37H235.979V264.025ZM269.522 289.047H284.189V292.391H269.522V289.047ZM235.979 289.047H265.066V292.391H235.979V289.047ZM235.979 301.557H252.008V304.902H235.979V301.557ZM274.287 188.837H297.248V192.182H274.287V188.837ZM274.287 226.307H297.248V229.652H274.287V226.307ZM262.776 238.756H272.616V242.101H262.776V238.756ZM252.998 251.453H275.03V254.797H252.998V251.453ZM278.372 251.453H308.821V254.797H278.372V251.453ZM235.979 238.88H258.939V242.225H235.979V238.88ZM235.979 251.453H249.594V254.797H235.979V251.453ZM277.258 238.88H290.131V242.225H277.258V238.88ZM236.412 314.006H249.285V317.351H236.412V314.006ZM235.917 213.797H258.877V217.141H235.917V213.797ZM256.216 276.598H279.176V279.942H256.216V276.598ZM256.525 301.557H279.486V304.902H256.525V301.557ZM297.31 301.557H320.27V304.902H297.31V301.557ZM235.917 226.307H268.656V229.652H235.917V226.307ZM389.337 188.837H412.297V192.182H389.337V188.837ZM307.521 314.006H330.481V317.351H307.521V314.006ZM419.414 188.837H434.762V192.182H419.414V188.837ZM471.462 201.348H486.81V204.692H471.462V201.348ZM303.436 188.837H332.709V192.182H303.436V188.837ZM417.434 201.348H446.707V204.692H417.434V201.348ZM381.539 213.797H410.812V217.141H381.539V213.797ZM343.478 226.307H372.751V229.652H343.478V226.307ZM414.463 213.797H435.257V217.141H414.463V213.797ZM354.308 188.837H383.581V192.182H354.308V188.837ZM320.951 226.307H338.094V229.652H320.951V226.307ZM307.521 276.784H324.664V280.128H307.521V276.784ZM338.094 188.837H348.8V192.182H338.094V188.837ZM303.436 226.307H314.143V229.652H303.436V226.307ZM453.762 201.348H464.469V204.692H453.762V201.348ZM235.607 201.348H252.379V204.692H235.607V201.348ZM280.352 264.087H293.596V267.432H280.352V264.087ZM256.525 201.348H261.91V204.692H256.525V201.348ZM367.552 201.348H412.297V204.692H367.552V201.348ZM324.664 301.557H369.409V304.902H324.664V301.557ZM265.871 201.348H271.379V204.692H265.871V201.348ZM348.8 201.348H363.406V204.692H348.8V201.348ZM363.468 213.797H378.073V217.141H363.468V213.797ZM288.212 314.006H302.818V317.351H288.212V314.006ZM313.834 201.348H344.963V204.692H313.834V201.348ZM284.808 276.784H303.003V280.128H284.808V276.784ZM283.694 301.557H292.792V304.902H283.694V301.557ZM298.671 201.348H309.378V204.692H298.671V201.348ZM262.652 213.797H273.359V217.141H262.652V213.797ZM264.757 264.087H275.463V267.432H264.757V264.087ZM275.958 201.348H294.648V204.692H275.958V201.348Z" fill="#F7F7F7"/>
<path d="M432.658 226.431C432.658 226.431 438.104 235.659 440.394 237.146C443.489 239.19 441.57 241.234 440.085 241.295C438.599 241.295 431.049 241.853 429.378 239.933C427.707 238.013 426.903 232.377 425.355 230.891C423.808 229.404 422.199 223.52 426.098 222.096C429.502 220.795 432.658 226.431 432.658 226.431V226.431Z" fill="#46FFBD" fill-opacity="0.7"/>
<path d="M430.244 222.406C430.244 222.406 436.495 233.244 437.547 234.792C438.599 236.403 435.504 236.403 433.586 235.659C431.667 234.916 426.84 227.174 426.159 225.75C425.355 224.078 426.036 222.158 426.036 222.158L430.244 222.406V222.406Z" fill="#FFE3CA"/>
<path d="M423.931 228.165L425.417 239.252L426.159 239.314L425.912 231.324L423.931 228.165ZM378.629 226.431C378.629 226.431 384.075 235.659 386.365 237.146C389.46 239.19 387.541 241.234 386.056 241.296C384.571 241.296 377.02 241.853 375.349 239.933C373.678 238.013 372.874 232.377 371.327 230.891C369.779 229.404 368.108 223.335 372.069 222.096C375.535 220.981 378.629 226.431 378.629 226.431V226.431Z" fill="#46FFBD" fill-opacity="0.7"/>
<path d="M376.588 222.406C376.588 222.406 382.467 233.182 383.581 234.792C384.633 236.403 381.539 236.403 379.62 235.659C377.702 234.916 372.874 227.174 372.194 225.75C371.389 224.078 372.07 222.158 372.07 222.158L376.588 222.406V222.406Z" fill="#FFE3CA"/>
<path d="M369.966 228.165L371.389 239.252L372.194 239.314L371.946 231.324L369.966 228.165Z" fill="#46FFBD" fill-opacity="0.7"/>
<path d="M354.493 142.387L403.756 164.869C403.756 164.869 409.264 166.665 409.883 172.796C411.801 191.872 426.035 222.096 426.035 222.096C430.615 224.326 430.244 222.406 430.244 222.406C427.335 213.115 423.869 174.964 422.57 159.666C422.322 156.446 422.137 154.216 422.075 153.473C422.075 152.977 421.518 152.358 420.589 151.615C413.844 146.103 385.994 134.769 385.994 134.769C365.262 134.211 354.493 142.387 354.493 142.387V142.387Z" fill="#FFE3CA"/>
<path d="M345.21 152.048C346.757 165.364 365.757 163.878 365.757 163.878H388.779C388.779 163.878 382.714 177.379 380.362 188.713C377.887 200.791 372.007 222.096 372.007 222.096C372.007 222.096 372.379 222.839 376.587 222.406C376.587 222.406 394.658 186.36 401.59 177.256C403.075 175.336 407.345 164.683 408.088 158.366C408.336 156.26 408.212 154.588 407.407 153.906C406.603 153.225 404.746 151.986 402.332 150.438C395.092 145.855 382.59 138.856 375.597 137.308C366.252 135.202 351.461 131.239 351.461 131.239C351.461 131.239 343.663 138.733 345.21 152.048V152.048Z" fill="#FFE3CA"/>
<path d="M360.868 49.3615C360.868 49.3615 357.403 42.7965 359.074 35.8599C360.744 28.8613 367.243 21.9247 376.712 25.1453C386.18 28.3658 393.854 35.6741 388.161 44.221C382.467 52.706 393.297 56.6078 390.513 60.6335C387.728 64.6593 388.78 68.9327 389.955 69.8617C391.131 70.7907 394.907 74.1352 394.473 78.1609C394.04 82.1247 376.093 66.5792 376.093 66.5792C376.093 66.5792 366.376 46.8222 360.868 49.3615Z" fill="#0E538C"/>
<path d="M389.77 133.097C389.77 133.097 388.347 140.033 351.523 131.3C351.523 131.3 363.839 127.213 389.77 133.097Z" fill="#EB4747"/>
<path d="M351.09 133.22C350.533 134.335 349.976 135.388 349.357 136.503C362.787 136.874 376.278 137.308 389.708 137.68C387.604 130.557 388.285 120.895 388.656 113.587C389.089 104.607 394.04 98.4134 393.545 89.371C396.206 89.8045 396.639 89.8665 399.301 90.3C395.216 78.6564 393.854 72.8965 381.167 68.4372C377.021 66.9508 374.36 66.7031 369.904 67.0747C355.236 68.3134 350.842 68.4372 343.602 81.7531C354.865 83.5492 353.009 87.5749 356.412 98.8469C358.083 104.297 359.816 110.429 358.95 116.188C358.083 121.824 351.09 128.08 351.09 133.22Z" fill="white"/>
<path d="M374.483 71.2242C368.48 70.1094 369.78 66.765 369.78 66.765C369.78 66.765 370.027 64.9069 370.151 62.4915C370.151 61.8722 370.213 61.2528 370.213 60.5715C370.213 59.5806 370.151 58.5897 370.027 57.5987C369.532 53.573 380.92 55.9884 380.92 55.9884C380.92 55.9884 380.239 64.1637 381.848 66.5792C383.395 69.0565 380.486 72.401 374.483 71.2242V71.2242Z" fill="#FFE3CA"/>
<path d="M363.034 66.765C363.034 66.765 375.164 80.7621 379.62 83.9827C379.62 83.9827 384.756 79.3376 381.6 67.0746C381.6 67.0746 375.783 64.1018 363.034 66.765ZM363.405 33.0728C363.405 33.0728 357.093 45.2119 363.343 56.6697C369.594 68.1275 381.848 51.653 382.59 49.7331C383.395 47.8131 387.603 36.8508 379.248 33.5683C370.893 30.2238 365.2 29.7903 363.405 33.0728Z" fill="#FFE3CA"/>
<path d="M375.536 57.9084C375.536 57.9084 374.422 60.3239 370.151 62.4916C370.151 61.8722 370.213 61.2529 370.213 60.5716C370.213 60.5716 373.122 60.2619 375.536 57.9084V57.9084Z" fill="#FCD2B1"/>
<path d="M311.977 122.32C311.977 122.32 309.006 123.621 307.583 123.063C306.159 122.444 303.993 122.32 303.312 122.32C302.384 122.32 299.475 121.267 299.537 122.444C299.599 123.559 304.241 124.364 305.169 124.735C306.097 125.107 302.322 127.151 301.951 128.08C301.579 129.009 305.912 135.078 308.325 133.344C310.739 131.61 312.038 128.142 312.534 127.894C313.029 127.646 314.328 126.717 314.328 126.717L311.977 122.32V122.32Z" fill="#FFE3CA"/>
<path d="M302.446 127.522C302.446 127.522 295.453 133.344 295.329 134.149C295.205 134.955 295.577 135.326 296.258 134.769C296.938 134.273 303.189 129.319 303.189 129.319C303.189 129.319 296.196 137.618 295.948 138.237C295.824 138.609 296.505 139.352 296.876 139.104C297.248 138.856 304.736 131.053 304.736 131.053C304.736 131.053 298.176 138.794 298.176 139.414C298.114 139.909 298.919 140.467 299.476 139.909C300.033 139.352 306.531 132.539 306.531 132.539C306.531 132.539 302.137 138.485 302.446 139.042C302.632 139.352 303.189 140.033 304.241 138.485C305.293 136.936 308.264 133.468 308.264 133.468L302.446 127.522V127.522Z" fill="#FFE3CA"/>
<path d="M386.365 163.816H365.757C365.757 163.816 346.757 165.364 345.21 151.986C343.663 138.671 351.461 131.239 351.461 131.239C351.461 131.239 361.486 133.902 370.275 136.007C374.669 135.078 379.929 134.459 386.118 134.645C386.118 134.645 423.25 146.908 422.137 153.411C422.137 153.473 406.603 145.174 386.365 163.816V163.816Z" fill="#0E538C"/>
<path d="M372.937 140.776L412.297 140.157L392.431 150.252L372.937 140.776Z" fill="#F2F2F2"/>
<path d="M385.19 135.698C385.19 135.698 376.34 139.104 365.51 136.007L365.015 131.982L387.356 133.22L385.19 135.698V135.698Z" fill="white"/>
<path d="M392.431 150.252L372.937 142.696V140.776L393.978 148.332L392.431 150.252Z" fill="#D3D3D3"/>
<path d="M385.004 137.618C384.88 139.042 386.366 140.095 387.727 139.538L390.017 138.547C390.698 138.237 391.131 137.556 391.007 136.813C390.079 130.867 388.037 107.703 391.007 103.678C392.121 102.191 392.802 100.891 393.173 99.7759C395.154 104.855 397.567 111.42 398.557 114.95L417.124 139.723L423.374 141.334C415.577 122.568 409.326 112.658 409.326 112.658C408.088 109.376 404.622 99.4663 401.528 90.6716C399.548 85.0975 397.815 79.957 396.825 77.2319C396.329 75.8074 395.401 74.6307 394.102 73.8875C391.193 72.1533 386.427 69.4282 382.095 67.3224H382.033C381.91 67.2605 381.786 67.1986 381.6 67.1366C389.893 79.5854 386.675 114.95 385.004 137.618C385.004 137.556 385.004 137.556 385.004 137.618ZM354.308 68.1276C351.647 68.5611 345.086 74.9403 341.621 81.3815C337.66 88.7516 333.575 97.1128 330.543 99.8379C324.973 104.916 309.315 122.815 308.573 122.382C308.263 122.196 312.843 127.708 313.462 127.956C313.771 128.08 339.145 106.031 341.621 102.687C343.911 99.5282 350.099 86.1504 351.956 86.4601C352.08 86.7698 354.37 91.6626 356.474 98.785C356.536 98.9089 356.536 99.0327 356.598 99.1566C358.083 104.111 357.959 109.562 357.155 115.631C356.536 120.214 353.132 127.708 351.09 131.362C350.842 131.796 350.904 132.663 351.151 133.282C351.337 133.654 351.523 133.964 351.832 134.087L359.321 136.874L361.053 137.494C362.291 137.989 363.653 137.742 364.643 136.998C365.447 136.441 366.066 135.512 366.19 134.397C367.861 121.639 369.965 108.571 371.636 103.678C379.001 82.1247 368.789 65.8979 368.789 65.8979C368.789 65.8979 356.659 67.2605 354.308 68.1276V68.1276Z" fill="#46FFBD" fill-opacity="0.7"/>
<path d="M392.431 150.252L404.127 118.294L441.817 118.914L430.677 148.394L392.431 150.252Z" fill="#46FFBD" fill-opacity="0.7"/>
<path d="M416.196 132.415C415.02 134.707 415.392 137.246 417.001 137.989C418.61 138.794 420.776 137.556 421.952 135.264C423.128 132.973 422.756 130.433 421.147 129.69C419.538 128.885 417.31 130.124 416.196 132.415Z" fill="#F2F0F0"/>
<path d="M393.297 72.0295C390.512 67.8179 388.532 64.4735 388.284 58.4659C388.098 54.5021 387.232 49.1138 384.509 46.4507C387.356 39.0186 384.014 36.7889 382.652 34.3735C380.981 31.3387 368.604 24.0305 363.715 31.7103C358.825 39.3282 360.558 47.3177 360.558 47.3177C361.053 43.1062 365.386 37.4083 365.386 37.4083C366.066 41.8056 375.164 48.99 379.125 51.9009C379.063 51.9628 379.001 52.0867 379.001 52.1486C376.773 55.3692 379.558 58.5897 380.053 61.9961C380.548 65.4025 370.708 74.5688 381.662 79.1519C392.616 83.7969 396.082 76.179 393.297 72.0295V72.0295ZM194.08 432.796C194.08 432.796 193.833 435.397 181.703 435.397C169.573 435.397 151.935 432.238 151.935 432.238L180.094 429.513C180.094 429.513 190.924 428.956 194.08 432.796Z" fill="#0E538C"/>
<path d="M163.199 433.725C156.329 433.725 153.42 437.255 150.697 438.37C147.974 439.485 145.251 441.157 145.251 441.095C146.798 438.06 148.964 437.998 150.078 437.007C151.192 436.016 150.883 436.512 148.469 436.326C147.108 436.202 144.632 438.741 142.899 440.166C141.352 441.343 140.424 441.467 140.424 441.467C140.424 441.467 142.219 438.927 144.447 436.883C147.17 434.406 150.573 432.362 151.378 431.991C152.863 431.371 157.443 431.247 160.661 431.681C164.374 432.176 168.15 433.725 163.199 433.725V433.725Z" fill="#0E538C"/>
<path d="M151.811 432.115C151.811 432.115 146.551 433.477 145.622 434.22C145.003 434.716 142.28 437.627 142.28 437.627C142.28 437.627 144.261 437.317 145.375 436.202C146.551 435.025 151.811 432.115 151.811 432.115ZM184.116 427.469C184.116 427.469 197.36 428.337 196.432 436.512C195.937 441.157 192.905 442.767 188.882 442.396C181.455 441.776 173.039 440.661 173.039 440.661L169.263 427.965L184.116 427.469V427.469Z" fill="#0E538C"/>
<path d="M186.901 428.584L199.898 386.655C199.898 386.655 201.816 380.523 204.972 381.638C209.49 383.31 207.262 388.327 206.891 391.3C206.086 397.37 206.643 400.033 202.435 414.649C199.836 423.692 197.608 434.096 195.38 440.042C193.833 444.13 191.171 438.246 187.149 436.636C179.598 433.601 186.901 428.584 186.901 428.584V428.584ZM187.891 363.863C190.429 371.171 198.288 374.949 205.529 372.286C212.708 369.623 216.545 361.51 214.008 354.201C211.471 346.893 203.611 343.115 196.37 345.778C189.191 348.442 185.354 356.555 187.891 363.863Z" fill="#0E538C"/>
<path d="M173.658 364.544C177.618 370.49 185.54 371.977 191.296 367.889L190.491 360.89C196.247 356.741 197.67 348.565 193.709 342.62L190.986 338.594C187.025 332.648 179.104 331.162 173.348 335.25L170.749 337.108C164.993 341.257 163.57 349.432 167.531 355.378L173.658 364.544Z" fill="#0E538C"/>
<path d="M168.459 345.035C169.139 346.026 169.882 346.955 170.748 347.884C176.442 354.078 184.054 356.431 188.882 353.892C191.109 356.927 193.647 359.342 195.937 361.2C198.598 363.368 205.406 364.235 205.406 364.235C209.366 368.57 194.513 393.901 193.461 393.777C191.295 393.592 188.51 379.594 190.552 374.516C191.481 372.224 192.966 369.499 192.533 368.26C190.986 363.987 188.82 364.73 188.82 364.73C188.82 364.73 185.973 368.075 183.745 367.951C181.455 367.765 177.494 364.173 177.308 364.111C176.628 363.553 176.009 362.872 175.452 362.067L169.511 353.149C167.963 350.671 167.592 347.698 168.459 345.035Z" fill="#FFE3CA"/>
<path d="M213.884 451.748C213.884 451.748 209.057 457.57 207.572 458.189C205.591 459.056 199.526 457.198 199.526 457.198C199.526 457.198 197.917 430.504 196.061 420.099C194.204 409.694 191.481 406.969 191.357 403.687C191.171 398.422 186.777 396.317 187.52 392.229C188.263 388.141 189.562 373.525 189.996 375.445C193.771 392.043 198.412 378.232 199.464 376.064C200.021 374.887 213.884 451.748 213.884 451.748Z" fill="#F2F0F0"/>
<path d="M191.914 370.49C191.914 370.49 186.035 376.931 186.468 379.471C186.839 382.01 183.93 389.938 186.839 400.962C190.119 413.534 191.852 422.081 192.471 430.319C193.09 438.556 190.305 446.112 191.419 456.207C192.285 464.135 194.08 464.568 194.08 464.568C194.08 464.568 197.608 465.435 200.083 462.339C202.559 459.304 198.845 432.3 197.608 425.612C196.37 418.861 192.409 403.13 191.357 398.484C190.057 392.787 190.305 386.965 190.367 385.292C190.676 379.409 191.419 375.755 192.038 373.525C192.1 373.215 192.409 369.747 191.914 370.49V370.49ZM202.187 378.046C205.406 387.336 215.431 392.105 224.591 388.699C233.75 385.292 238.577 375.011 235.359 365.721C232.141 356.431 222.115 351.662 212.956 355.069C203.796 358.413 198.969 368.756 202.187 378.046Z" fill="#0E538C"/>
<path d="M170.687 537.712L173.967 563.911L159.733 570.661L151.873 572.396L165.86 561.557L161.28 537.898L170.687 537.712Z" fill="#FCBAA2"/>
<path d="M174.895 567.874L171.801 568.679L169.697 566.759L158.309 572.457L148.222 574.873C148.222 574.873 148.098 574.068 148.407 573.634C149.645 571.962 156.762 568.308 156.762 568.308C156.762 568.308 156.886 570.723 157.876 570.785C158.866 570.847 167.593 566.264 169.635 565.025C173.101 562.858 173.781 561.433 174.029 561.619C174.772 561.991 174.895 567.874 174.895 567.874Z" fill="#0E538C"/>
<path d="M136.339 501.295L125.014 523.591L109.418 522.848L101.62 520.557L118.887 517.646L128.294 498.57L136.339 501.295Z" fill="#FCBAA2"/>
<path d="M124.086 527.555L120.991 526.812L120.001 524.087L105.953 523.901L97.5977 521.919C97.5977 521.919 98.5879 520.804 99.2067 520.495C101.063 519.689 107.685 519.318 107.685 519.318C107.685 519.318 107.005 521.238 107.871 521.733C108.737 522.291 118.392 522.6 120.744 522.415C124.828 522.105 126.004 521.238 126.128 521.486C126.561 522.353 124.086 527.555 124.086 527.555Z" fill="#0E538C"/>
<path d="M218.959 434.592L210.543 438.37L210.605 449.952L152.616 440.476C152.616 440.476 147.108 438.68 143.58 447.784C138.567 460.666 125.818 500.738 125.818 500.738L133.864 509.47L159.176 464.197C159.176 464.197 211.038 489.404 228.119 483.954C234.679 481.848 239.692 469.833 238.764 457.693C238.021 448.156 236.164 439.423 236.164 439.423L218.959 434.592V434.592Z" fill="#46FFBD" fill-opacity="0.7"/>
<path d="M211.595 483.706L170.068 480.609L173.658 547.002L161.404 547.436L152.368 469.647C152.368 469.647 154.782 458.065 162.703 459.799C170.687 461.595 189.872 476.831 211.595 483.706V483.706Z" fill="#46FFBD" fill-opacity="0.7"/>
<path d="M239.568 500.366C239.568 500.366 217.783 475.902 212.152 462.091C205.406 445.554 205.963 424.806 204.725 417.932C202.435 405.297 199.65 380.771 199.155 377.736C198.598 374.702 200.517 371.295 200.517 371.295C200.517 371.295 199.093 362.129 203.178 363.12C209.057 364.544 214.875 367.765 216.917 368.756C220.754 370.49 228.614 416.693 229.047 418.923C230.656 426.974 236.535 434.282 240.744 441.776C250.646 459.551 253.183 480.547 253.183 480.547C253.183 480.547 251.945 495.907 239.568 500.366V500.366Z" fill="#46FFBD" fill-opacity="0.7"/>
<path d="M217.103 436.388C217.103 436.388 216.918 439.361 203.055 438.68C189.192 437.936 168.893 433.291 168.893 433.291L201.012 431.805C201.012 431.805 213.328 431.867 217.103 436.388Z" fill="#FFE3CA"/>
<path d="M179.785 434.902C173.163 434.778 170.316 438.184 167.717 439.237C165.117 440.29 162.456 441.838 162.456 441.838C163.941 438.927 166.046 438.865 167.16 437.936C168.212 437.007 167.964 437.503 165.612 437.255C164.251 437.131 161.899 439.547 160.228 440.909C158.743 442.086 157.814 442.148 157.814 442.148C157.814 442.148 159.547 439.671 161.713 437.689C164.375 435.335 167.593 433.353 168.397 433.044C169.821 432.486 174.215 432.424 177.371 432.92C180.899 433.415 184.55 435.025 179.785 434.902Z" fill="#FFE3CA"/>
<path d="M168.706 433.106C168.706 433.106 163.631 434.344 162.765 435.026C162.146 435.521 159.547 438.308 159.547 438.308C159.547 438.308 161.404 437.998 162.518 436.946C163.631 435.955 168.706 433.106 168.706 433.106V433.106Z" fill="#FFE3CA"/>
<path d="M206.024 433.106L226.571 422.267C226.571 422.267 226.633 435.397 226.757 440.414C226.881 445.43 228.985 452.491 225.024 453.544C221.063 454.597 219.021 454.039 223.105 456.455C227.19 458.808 226.262 461.286 224.715 463.329C223.167 465.373 229.913 486.183 228.304 487.36C221.93 479.308 215.06 469.337 212.089 462.091C208.314 452.677 206.829 441.9 206.024 433.106V433.106Z" fill="#0E538C"/>
<path d="M212.647 427.841L211.843 385.974C211.843 385.974 211.905 372.906 212.152 369.066C212.4 365.102 219.145 369.747 219.145 369.747C219.145 369.747 228.614 382.567 228.8 413.472C228.924 434.158 227.81 444.935 218.279 444.068C209.429 443.263 199.341 441.9 199.341 441.9L194.947 430.442L212.647 427.841Z" fill="#46FFBD" fill-opacity="0.7"/>
<path d="M210.542 449.952L139.805 441.095L139.99 439.609L210.728 448.465L210.542 449.952Z" fill="#D3D3D3"/>
<path d="M179.537 444.501C179.413 445.678 178.485 446.545 177.495 446.421L141.228 441.9C140.238 441.776 139.001 440.847 138.134 437.751L124.147 401.519C124.333 400.033 125.509 399.289 126.499 399.661L163.57 405.483C164.56 405.855 165.241 406.722 165.612 408.332L179.537 444.501Z" fill="#D3D3D3"/>
<path d="M174.957 445.492L175.329 445.554L210.728 450.014C209.367 450.571 207.201 450.757 204.787 450.447L175.143 446.731L174.772 446.669L145.127 442.953C142.714 442.643 140.671 441.9 139.434 441.095L174.957 445.492V445.492Z" fill="#D3D3D3"/>
<path d="M212.647 427.841L211.843 385.974C211.843 385.974 212.461 382.443 213.699 379.285C214.009 383.868 216.113 416.879 216.36 421.214C216.67 425.921 220.507 426.417 221.311 427.965C222.178 429.451 221.435 429.761 218.588 429.204C215.803 428.584 216.794 429.08 217.412 430.566C218.031 432.115 216.484 431.681 211.038 429.699C207.077 428.275 199.465 429.699 195.628 430.566L212.647 427.841V427.841Z" fill="#0E538C"/>
<path d="M457.228 325.092C450.42 326.888 437.857 333.206 435.196 344.044C431.235 360.333 439.156 384.177 426.655 407.589C422.632 415.021 495.784 425.054 495.784 425.054L509.894 342.805C509.894 342.805 492.256 324.968 488.667 323.73C481.178 321.252 470.843 321.5 457.228 325.092V325.092Z" fill="#CCE9FF"/>
<path d="M509.956 342.867C512.494 349.432 518.93 388.513 511.751 397.741C510.946 398.794 515.464 400.466 514.66 405.297C514.536 406.102 513.174 410.004 513.174 410.004L507.357 411.552L494.67 396.874C494.67 396.874 499.807 388.885 506.552 358.599C508.533 349.68 509.399 341.381 509.956 342.867V342.867Z" fill="#46FFBD" fill-opacity="0.7"/>
<path d="M461.931 389.566C461.931 389.566 468.058 405.731 482.849 410.066C485.387 410.809 486.996 413.658 485.758 414.587C484.149 415.764 482.045 416.012 478.331 416.012C470.595 416.012 460.074 413.534 452.834 406.226C442.065 395.45 438.661 390.495 439.775 385.107C440.765 379.594 461.931 389.566 461.931 389.566V389.566Z" fill="#FCD2B1"/>
<path d="M437.3 338.594C434.144 343.92 432.349 352.467 432.411 364.73C432.411 374.206 440.332 389.752 441.508 394.521C441.694 395.326 442.189 398.732 442.189 398.732L450.915 407.651L468.429 395.326L463.107 386.841L461.498 387.027C461.498 387.027 460.508 382.32 460.755 380.524C461.003 378.727 455.928 354.263 453.391 338.594C451.967 329.49 440.394 333.33 437.3 338.594V338.594Z" fill="#46FFBD" fill-opacity="0.7"/>
<path d="M453.019 386.655L458.155 385.045L460.26 384.487C460.383 385.974 461.621 386.965 461.621 386.965L457.598 387.46L452.957 388.947L447.511 392.848L453.019 386.655V386.655Z" fill="#0E538C"/>
<path d="M481.735 410.004L490.647 407.465C490.647 407.465 493.185 410.995 492.69 411.862C492.194 412.729 492.69 417.932 492.69 417.932L488.357 421.772L484.83 420.533C484.83 420.533 484.582 418.923 485.758 418.799C486.996 418.613 484.954 417.746 484.335 417.374C483.716 416.941 478.579 414.216 481.735 410.004V410.004Z" fill="#FCD2B1"/>
<path d="M467.996 324.287C467.006 327.198 468.491 330.481 471.338 331.472L476.413 333.33C479.26 334.383 482.354 332.772 483.344 329.861L487.862 316.484C488.852 313.573 487.367 310.29 484.52 309.237L479.445 307.379C476.598 306.326 473.504 307.937 472.514 310.848L467.996 324.287Z" fill="#FF957E"/>
<path d="M490.152 336.055C489.657 337.975 487.676 339.152 485.82 338.594L470.534 334.197C468.677 333.639 467.563 331.657 468.058 329.676L474.309 306.203C474.804 304.283 476.784 303.106 478.641 303.663L493.927 307.999C495.784 308.556 496.898 310.538 496.403 312.52L490.152 336.055V336.055Z" fill="#FCD2B1"/>
<path d="M498.073 310.166C498.197 310.042 496.65 308.308 497.454 304.902C498.507 300.319 495.103 298.461 492.565 298.399C491.08 298.337 486.067 300.752 483.406 301.557C480.745 302.363 480.992 301.31 476.165 300.443C472.947 299.823 472.204 301.619 471.09 304.097C469.976 306.636 469.853 316.298 469.853 316.298C470.286 316.917 470.967 317.413 471.4 316.917C471.833 316.422 473.566 308.68 474.989 306.388C476.351 304.097 481.921 307.751 484.953 309.547C487.924 311.343 490.585 311.653 495.35 310.662C495.907 311.281 496.402 311.962 496.402 312.272C496.402 312.891 495.041 317.289 495.041 317.289C495.041 317.289 497.702 315.616 498.445 314.316C498.816 313.882 498.94 311.777 498.073 310.166V310.166Z" fill="#46FFBD" fill-opacity="0.7"/>
<path d="M472.885 324.783C472.699 325.402 472.081 325.836 471.462 325.65L468.182 324.721C467.563 324.535 467.191 323.854 467.377 323.234L469.048 316.979C469.234 316.36 469.853 315.926 470.471 316.112L473.751 317.041C474.37 317.227 474.742 317.908 474.556 318.527L472.885 324.783Z" fill="#FCD2B1"/>
<path d="M470.842 318.837C470.842 318.837 468.367 328.065 467.562 331.162C466.82 333.949 466.263 340.39 481.425 344.726C490.399 347.265 491.884 340.328 492.503 338.099C492.936 336.364 492.441 330.728 491.76 329.49C491.76 329.428 490.77 333.33 490.77 333.33C490.77 333.33 489.904 329.056 485.633 327.879C478.764 325.898 476.041 329.676 473.07 328.685C470.719 327.879 470.038 323.42 470.842 318.837Z" fill="#46FFBD" fill-opacity="0.7"/>
<path d="M481.178 333.02L485.882 334.383C486.501 334.568 487.181 334.197 487.305 333.515L487.491 332.834L480.497 330.852L480.312 331.534C480.188 332.215 480.559 332.834 481.178 333.02Z" fill="#FCD2B1"/>
<path d="M555.753 426.85C553.586 433.106 515.464 456.083 502.653 454.721L464.097 456.64C431.358 452.491 415.824 399.723 415.824 399.723C417.124 386.469 449.429 405.669 460.94 411.614C479.135 421.028 490.708 421.524 490.708 421.524C502.9 422.824 517.011 413.039 532.421 412.729C549.316 412.296 559.218 417.003 555.753 426.85V426.85Z" fill="#0B4870"/>
<path d="M471.957 420.533C471.957 420.471 471.957 420.471 471.957 420.533V418.799L538.239 417.56V419.294L538.053 419.604C537.249 421.09 535.701 421.338 533.969 421.4L476.289 422.515C474.556 422.577 473.009 422.329 472.143 420.904L471.957 420.533V420.533Z" fill="#D3D3D3"/>
<path d="M487.924 420.471C487.924 420.471 487.924 420.533 487.924 420.471L487.738 420.781C487.491 421.152 487.181 421.462 486.81 421.648L476.722 421.834C475.051 421.896 473.566 421.71 472.7 420.533L472.514 420.285L472.452 420.223V419.418L487.8 419.108L487.924 420.471V420.471ZM496.898 419.852L530.008 419.232V418.056L496.836 418.737L496.898 419.852ZM488.295 418.427L496.279 384.487C496.465 383.62 497.331 382.877 498.197 382.815L544.737 381.948C545.604 381.948 546.099 382.629 545.913 383.558L537.929 417.498L488.295 418.427Z" fill="#D3D3D3"/>
<path d="M458.28 465.373C462.859 466.178 466.387 460.666 466.387 460.666L478.269 451.004L475.732 444.439L452.586 455.216C452.586 455.216 453.638 464.568 458.28 465.373V465.373Z" fill="#FCD2B1"/>
<path d="M466.325 460.295C466.325 460.295 466.325 460.852 465.458 463.391C464.592 465.931 463.478 466.798 462.364 467.169C457.908 468.532 454.752 467.851 444.107 469.956C433.462 472.062 430.244 470.452 427.15 465.373C424.055 460.295 427.273 456.269 432.472 455.897C439.96 455.34 444.169 456.207 448.068 455.588C452.152 454.968 452.4 453.977 454.814 452.429C457.041 451.005 459.146 459.551 457.041 461.533C455.123 463.268 464.777 463.515 466.325 460.295V460.295Z" fill="#46FFBD" fill-opacity="0.7"/>
<path d="M464.097 465.187C459.703 466.55 456.484 465.869 445.84 467.974C435.195 470.08 431.977 468.47 428.882 463.391C427.459 461.038 427.397 458.932 428.202 457.322C425.85 458.994 425.045 461.905 427.15 465.373C430.244 470.452 433.462 472.062 444.107 469.956C454.752 467.851 457.97 468.532 462.364 467.169C463.23 466.922 464.097 466.302 464.839 464.878C464.592 465.002 464.344 465.125 464.097 465.187V465.187Z" fill="white"/>
<path d="M466.325 460.48V460.357C466.325 460.419 466.263 460.48 466.201 460.542C466.263 460.48 466.325 460.48 466.325 460.48V460.48Z" fill="#E9D6B8"/>
<path d="M443.364 464.258C443.055 464.382 442.746 463.701 442.622 462.772C442.436 460.852 442.003 458.994 441.384 457.074C441.075 456.145 441.075 455.34 441.446 455.216C441.817 455.092 442.436 455.773 442.684 456.702C443.303 458.56 443.674 460.48 443.86 462.338C443.983 463.267 443.674 464.135 443.364 464.258ZM446.645 463.639C446.273 463.701 445.964 463.082 445.84 462.215C445.654 460.418 445.221 458.622 444.602 456.888C444.293 456.021 444.293 455.278 444.726 455.216C445.097 455.154 445.716 455.835 446.026 456.702C446.583 458.437 447.016 460.233 447.201 461.967C447.263 462.834 447.016 463.577 446.645 463.639V463.639ZM450.11 463.515C449.739 463.577 449.368 462.896 449.244 461.967C448.934 460.109 448.501 458.313 447.82 456.455C447.511 455.526 447.511 454.782 447.882 454.782C448.315 454.782 448.934 455.464 449.244 456.393C449.925 458.189 450.358 460.047 450.605 461.843C450.729 462.71 450.482 463.453 450.11 463.515V463.515Z" fill="white"/>
<path d="M459.084 449.58C459.084 449.58 540.59 414.835 545.232 414.773C560.951 414.649 557.362 431.124 549.378 438.927C539.971 448.094 468.429 464.878 468.429 464.878L459.084 449.58V449.58Z" fill="#0E538C"/>
<path d="M491.389 455.65L469.109 433.725L478.64 424.001L502.9 450.509L491.389 455.65Z" fill="#FCD2B1"/>
<path d="M495.97 438.432C495.97 438.432 439.342 384.611 435.567 383.001C422.633 377.551 414.649 392.353 415.082 397.493C415.701 404.12 473.195 458.003 473.195 458.003L495.97 438.432V438.432Z" fill="#0E538C"/>
<path d="M529.512 457.322C530.812 458.561 531.059 462.339 531.059 462.339C531.059 462.339 512.183 469.771 505.561 469.895C503.828 469.956 500.734 469.213 497.763 468.346C497.268 468.222 496.092 466.86 495.597 466.736C494.669 466.488 494.483 467.355 493.741 467.107C491.76 466.426 490.275 465.869 490.213 465.745C486.19 456.95 487.552 452.615 487.552 452.615C487.552 452.615 496.216 455.216 494.731 453.172C491.575 448.837 500.672 444.44 502.653 446.731C510.822 455.959 525.675 453.668 529.512 457.322V457.322Z" fill="#46FFBD" fill-opacity="0.7"/>
<path d="M530.564 459.18C524.747 461.595 512.555 466.488 510.141 466.674C500.178 467.417 493.246 463.763 488.604 461.595C489.038 462.834 489.533 464.258 490.214 465.745C490.275 465.869 491.699 466.426 493.741 467.107C494.546 467.355 494.731 466.426 495.598 466.736C496.093 466.86 497.207 468.222 497.764 468.346C500.734 469.213 503.829 469.894 505.562 469.894C512.184 469.771 531.06 462.338 531.06 462.338C531.06 462.338 531.06 460.604 530.564 459.18V459.18ZM517.259 453.482C517.444 453.853 516.702 454.225 515.649 454.473C513.483 454.906 511.379 455.588 509.275 456.455C508.223 456.888 507.295 457.012 507.171 456.64C507.047 456.269 507.728 455.588 508.78 455.154C510.822 454.287 512.988 453.668 515.092 453.234C516.083 452.924 517.073 453.11 517.259 453.482V453.482ZM512.988 451.933C513.174 452.305 512.431 452.801 511.379 453.11C509.275 453.73 507.233 454.597 505.19 455.65C504.2 456.145 503.272 456.331 503.148 455.959C503.024 455.588 503.705 454.782 504.695 454.287C506.676 453.296 508.718 452.429 510.822 451.872C511.874 451.438 512.865 451.562 512.988 451.933ZM508.904 450.571C509.027 450.943 508.347 451.5 507.356 451.872C505.314 452.677 503.334 453.668 501.415 454.844C500.487 455.464 499.621 455.65 499.497 455.216C499.373 454.844 499.992 453.977 500.982 453.358C502.901 452.181 504.881 451.19 506.861 450.447C507.852 450.137 508.78 450.199 508.904 450.571V450.571Z" fill="white"/>
</svg>
