<svg width="344" height="319" viewBox="0 0 344 319" fill="none" xmlns="http://www.w3.org/2000/svg">
<rect width="320.908" height="289.929" rx="20" fill="#46FFBD" fill-opacity="0.7"/>
<rect x="23.0918" y="28.6809" width="320.908" height="289.929" rx="20" fill="#5552FF"/>
<rect x="95" y="84" width="180" height="180" rx="50" fill="white"/>
<path d="M173.581 177.817C173.581 177.817 170.297 179.728 175.922 180.374C182.736 181.152 186.219 181.04 193.727 179.621C193.727 179.621 195.706 180.858 198.462 181.93C181.626 189.143 160.358 181.512 173.581 177.817ZM171.522 168.402C171.522 168.402 167.838 171.131 173.467 171.713C180.747 172.464 186.494 172.526 196.446 170.61C196.446 170.61 197.819 172.006 199.982 172.767C179.63 178.721 156.961 173.236 171.522 168.402Z" fill="#0074BD"/>
<path d="M188.865 152.431C193.016 157.209 187.777 161.505 187.777 161.505C187.777 161.505 198.31 156.068 193.473 149.257C188.954 142.908 185.491 139.755 204.244 128.879C204.245 128.879 174.806 136.229 188.865 152.431Z" fill="#EA2D2E"/>
<path d="M211.132 184.781C211.132 184.781 213.564 186.786 208.454 188.336C198.738 191.279 168.01 192.167 159.475 188.453C156.409 187.118 162.162 185.266 163.971 184.877C165.858 184.468 166.936 184.543 166.936 184.543C163.524 182.14 144.881 189.262 157.467 191.305C191.791 196.868 220.034 188.799 211.132 184.781ZM175.162 158.647C175.162 158.647 159.533 162.36 169.628 163.71C173.892 164.28 182.386 164.149 190.304 163.485C196.773 162.942 203.265 161.781 203.265 161.781C203.265 161.781 200.986 162.759 199.335 163.885C183.461 168.06 152.802 166.115 161.629 161.847C169.092 158.236 175.162 158.647 175.162 158.647ZM203.2 174.317C219.335 165.935 211.874 157.879 206.667 158.964C205.394 159.23 204.822 159.46 204.822 159.46C204.822 159.46 205.297 158.716 206.2 158.397C216.502 154.777 224.423 169.078 202.878 174.742C202.878 174.742 203.125 174.518 203.2 174.317Z" fill="#0074BD"/>
<path d="M193.474 111.313C193.474 111.313 202.409 120.252 184.998 133.995C171.036 145.022 181.814 151.308 184.992 158.493C176.842 151.139 170.864 144.665 174.874 138.641C180.763 129.799 197.078 125.51 193.474 111.313Z" fill="#EA2D2E"/>
<path d="M176.749 197.039C192.233 198.029 216.018 196.488 216.581 189.161C216.581 189.161 215.499 191.938 203.782 194.142C190.564 196.63 174.259 196.341 164.591 194.745C164.591 194.745 166.571 196.385 176.749 197.039Z" fill="#0074BD"/>
<path d="M215.866 210.181H215.394V209.917H216.664V210.181H216.194V211.498H215.865L215.866 210.181ZM218.401 210.247H218.395L217.927 211.498H217.711L217.246 210.247H217.241V211.498H216.929V209.917H217.386L217.817 211.036L218.249 209.917H218.703V211.498H218.401V210.247ZM174.211 225.037C172.751 226.303 171.207 227.015 169.82 227.015C167.846 227.015 166.775 225.829 166.775 223.93C166.775 221.875 167.921 220.37 172.513 220.37H174.21V225.037H174.211ZM178.242 229.585V215.508C178.242 211.909 176.189 209.535 171.245 209.535C168.359 209.535 165.829 210.249 163.772 211.157L164.364 213.65C165.984 213.055 168.079 212.503 170.135 212.503C172.985 212.503 174.21 213.65 174.21 216.024V217.803H172.786C165.865 217.803 162.742 220.488 162.742 224.526C162.742 228.005 164.8 229.982 168.675 229.982C171.165 229.982 173.026 228.954 174.763 227.449L175.079 229.586H178.242V229.585ZM191.694 229.585H186.667L180.616 209.896H185.007L188.763 221.995L189.598 225.63C191.494 220.372 192.838 215.034 193.51 209.897H197.781C196.638 216.378 194.578 223.495 191.694 229.585ZM210.982 225.037C209.517 226.303 207.972 227.015 206.59 227.015C204.614 227.015 203.544 225.829 203.544 223.93C203.544 221.875 204.693 220.37 209.28 220.37H210.981V225.037H210.982ZM215.015 229.585V215.508C215.015 211.909 212.956 209.535 208.016 209.535C205.127 209.535 202.598 210.249 200.541 211.157L201.134 213.65C202.754 213.055 204.852 212.503 206.908 212.503C209.754 212.503 210.982 213.65 210.982 216.024V217.803H209.558C202.635 217.803 199.513 220.488 199.513 224.526C199.513 228.005 201.569 229.982 205.443 229.982C207.934 229.982 209.792 228.954 211.534 227.449L211.852 229.586H215.015V229.585ZM158.322 232.931C157.175 234.61 155.317 235.939 153.285 236.688L151.296 234.343C152.843 233.549 154.168 232.268 154.785 231.074C155.317 230.011 155.538 228.644 155.538 225.373V202.891H159.822V225.064C159.822 229.439 159.474 231.208 158.322 232.931Z" fill="#EA2D2E"/>
</svg>
