<svg width="512" height="512" viewBox="0 0 512 512" fill="none" xmlns="http://www.w3.org/2000/svg">
<g clip-path="url(#clip0_17_147)">
<path d="M494.5 123.5H67.5C57.835 123.5 50 131.335 50 141V421C50 430.665 57.835 438.5 67.5 438.5H494.5C504.165 438.5 512 430.665 512 421V141C512 131.335 504.165 123.5 494.5 123.5Z" fill="#8397CC"/>
<path d="M67.5 123.5C62.8603 123.505 58.4122 125.351 55.1315 128.631C51.8507 131.912 50.0053 136.36 50 141V408.5H464.5C469.14 408.495 473.588 406.649 476.869 403.369C480.149 400.088 481.995 395.64 482 391V123.5H67.5Z" fill="#6D83B5"/>
<path d="M444.5 73.5H17.5C7.83502 73.5 0 81.335 0 91V371C0 380.665 7.83502 388.5 17.5 388.5H444.5C454.165 388.5 462 380.665 462 371V91C462 81.335 454.165 73.5 444.5 73.5Z" fill="#3D58FF"/>
<path d="M20 111C20.0053 106.36 21.8507 101.912 25.1315 98.6315C28.4122 95.3507 32.8603 93.5053 37.5 93.5H462V91C461.995 86.3603 460.149 81.9122 456.869 78.6315C453.588 75.3507 449.14 73.5053 444.5 73.5H17.5C12.8603 73.5053 8.41222 75.3507 5.13148 78.6315C1.85074 81.9122 0.0052934 86.3603 0 91L0 371C0.0052934 375.64 1.85074 380.088 5.13148 383.369C8.41222 386.649 12.8603 388.495 17.5 388.5H20V111Z" fill="#3146CC"/>
<path d="M414.5 303.5H304.5C294.835 303.5 287 311.335 287 321V341C287 350.665 294.835 358.5 304.5 358.5H414.5C424.165 358.5 432 350.665 432 341V321C432 311.335 424.165 303.5 414.5 303.5Z" fill="#3146CC"/>
<path d="M404.5 293.5H294.5C284.835 293.5 277 301.335 277 311V331C277 340.665 284.835 348.5 294.5 348.5H404.5C414.165 348.5 422 340.665 422 331V311C422 301.335 414.165 293.5 404.5 293.5Z" fill="#F65D6D"/>
<path d="M287 341V321C287.005 316.36 288.851 311.912 292.131 308.631C295.412 305.351 299.86 303.505 304.5 303.5H414.5C416.659 303.502 418.799 303.906 420.81 304.69C419.532 301.401 417.293 298.573 414.383 296.577C411.473 294.58 408.029 293.508 404.5 293.5H294.5C289.86 293.505 285.412 295.351 282.131 298.631C278.851 301.912 277.005 306.36 277 311V331C277.008 334.529 278.08 337.973 280.077 340.883C282.073 343.793 284.901 346.032 288.19 347.31C287.406 345.299 287.002 343.159 287 341Z" fill="#E25065"/>
<path d="M462 123.5V91C461.995 86.3603 460.149 81.9122 456.869 78.6315C453.588 75.3507 449.14 73.5053 444.5 73.5H17.5C12.8603 73.5053 8.41222 75.3507 5.13148 78.6315C1.85074 81.9122 0.0052934 86.3603 0 91L0 123.5H462Z" fill="white"/>
<path d="M20 111C20.0053 106.36 21.8507 101.912 25.1315 98.6315C28.4122 95.3507 32.8603 93.5053 37.5 93.5H462V91C461.995 86.3603 460.149 81.9122 456.869 78.6315C453.588 75.3507 449.14 73.5053 444.5 73.5H17.5C12.8603 73.5053 8.41222 75.3507 5.13148 78.6315C1.85074 81.9122 0.0052934 86.3603 0 91L0 123.5H20V111Z" fill="#E8EFFF"/>
<path d="M190.45 254.33C188.979 254.335 187.539 253.908 186.309 253.101C185.08 252.294 184.114 251.143 183.533 249.792C182.952 248.44 182.782 246.948 183.043 245.5C183.303 244.053 183.984 242.714 185 241.65L207.1 218.5L185 195.35C184.32 194.636 183.788 193.794 183.434 192.874C183.079 191.954 182.91 190.973 182.934 189.988C182.959 189.002 183.177 188.031 183.577 187.129C183.977 186.228 184.551 185.415 185.265 184.735C185.979 184.055 186.821 183.523 187.741 183.169C188.661 182.814 189.642 182.644 190.627 182.669C191.613 182.694 192.584 182.912 193.486 183.312C194.387 183.712 195.2 184.286 195.88 185L222.93 213.33C224.258 214.728 224.999 216.582 224.999 218.51C224.999 220.438 224.258 222.292 222.93 223.69L195.88 252C195.182 252.738 194.34 253.326 193.406 253.726C192.472 254.127 191.466 254.332 190.45 254.33ZM74.55 254.33C73.5339 254.332 72.528 254.127 71.5942 253.726C70.6604 253.326 69.8184 252.738 69.12 252L42.07 223.68C40.742 222.282 40.0015 220.428 40.0015 218.5C40.0015 216.572 40.742 214.718 42.07 213.32L69.12 185C69.7996 184.286 70.6133 183.712 71.5145 183.312C72.4158 182.912 73.387 182.694 74.3727 182.669C75.3584 182.644 76.3392 182.814 77.2593 183.169C78.1794 183.523 79.0207 184.055 79.735 184.735C80.4494 185.415 81.023 186.228 81.4229 187.129C81.8229 188.031 82.0414 189.002 82.066 189.988C82.0906 190.973 81.9208 191.954 81.5663 192.874C81.2119 193.794 80.6796 194.636 80 195.35L57.87 218.5L80 241.65C81.0142 242.712 81.6943 244.048 81.9561 245.493C82.2179 246.938 82.0498 248.428 81.4726 249.778C80.8955 251.128 79.9347 252.279 78.7095 253.088C77.4842 253.898 76.0484 254.329 74.58 254.33H74.55ZM146 268.5C144.409 268.5 142.859 267.993 141.575 267.052C140.291 266.112 139.34 264.787 138.86 263.27L111.86 178.27C111.529 177.323 111.391 176.32 111.455 175.319C111.519 174.318 111.783 173.34 112.231 172.443C112.68 171.545 113.303 170.747 114.066 170.095C114.828 169.444 115.713 168.951 116.669 168.647C117.625 168.344 118.632 168.235 119.631 168.327C120.63 168.42 121.6 168.711 122.484 169.185C123.368 169.659 124.147 170.306 124.777 171.086C125.407 171.867 125.874 172.766 126.15 173.73L153.15 258.73C153.509 259.854 153.598 261.047 153.408 262.212C153.219 263.377 152.757 264.481 152.06 265.433C151.363 266.386 150.451 267.16 149.397 267.693C148.344 268.226 147.18 268.502 146 268.5Z" fill="#F65D6D"/>
<path d="M281 178.5H267.5C265.511 178.5 263.603 177.71 262.197 176.303C260.79 174.897 260 172.989 260 171C260 169.011 260.79 167.103 262.197 165.697C263.603 164.29 265.511 163.5 267.5 163.5H281C282.989 163.5 284.897 164.29 286.303 165.697C287.71 167.103 288.5 169.011 288.5 171C288.5 172.989 287.71 174.897 286.303 176.303C284.897 177.71 282.989 178.5 281 178.5ZM244.5 348.5H47.5C45.5109 348.5 43.6032 347.71 42.1967 346.303C40.7902 344.897 40 342.989 40 341C40 339.011 40.7902 337.103 42.1967 335.697C43.6032 334.29 45.5109 333.5 47.5 333.5H244.5C246.489 333.5 248.397 334.29 249.803 335.697C251.21 337.103 252 339.011 252 341C252 342.989 251.21 344.897 249.803 346.303C248.397 347.71 246.489 348.5 244.5 348.5ZM244.5 308.5H93C91.0109 308.5 89.1032 307.71 87.6967 306.303C86.2902 304.897 85.5 302.989 85.5 301C85.5 299.011 86.2902 297.103 87.6967 295.697C89.1032 294.29 91.0109 293.5 93 293.5H244.5C246.489 293.5 248.397 294.29 249.803 295.697C251.21 297.103 252 299.011 252 301C252 302.989 251.21 304.897 249.803 306.303C248.397 307.71 246.489 308.5 244.5 308.5ZM54.5 308.5H47.5C45.5109 308.5 43.6032 307.71 42.1967 306.303C40.7902 304.897 40 302.989 40 301C40 299.011 40.7902 297.103 42.1967 295.697C43.6032 294.29 45.5109 293.5 47.5 293.5H54.5C56.4891 293.5 58.3968 294.29 59.8033 295.697C61.2098 297.103 62 299.011 62 301C62 302.989 61.2098 304.897 59.8033 306.303C58.3968 307.71 56.4891 308.5 54.5 308.5ZM414.5 178.5H316C314.011 178.5 312.103 177.71 310.697 176.303C309.29 174.897 308.5 172.989 308.5 171C308.5 169.011 309.29 167.103 310.697 165.697C312.103 164.29 314.011 163.5 316 163.5H414.5C416.489 163.5 418.397 164.29 419.803 165.697C421.21 167.103 422 169.011 422 171C422 172.989 421.21 174.897 419.803 176.303C418.397 177.71 416.489 178.5 414.5 178.5ZM414.5 218.5H267.5C265.511 218.5 263.603 217.71 262.197 216.303C260.79 214.897 260 212.989 260 211C260 209.011 260.79 207.103 262.197 205.697C263.603 204.29 265.511 203.5 267.5 203.5H414.5C416.489 203.5 418.397 204.29 419.803 205.697C421.21 207.103 422 209.011 422 211C422 212.989 421.21 214.897 419.803 216.303C418.397 217.71 416.489 218.5 414.5 218.5ZM414.5 263.5H267.5C265.511 263.5 263.603 262.71 262.197 261.303C260.79 259.897 260 257.989 260 256C260 254.011 260.79 252.103 262.197 250.697C263.603 249.29 265.511 248.5 267.5 248.5H414.5C416.489 248.5 418.397 249.29 419.803 250.697C421.21 252.103 422 254.011 422 256C422 257.989 421.21 259.897 419.803 261.303C418.397 262.71 416.489 263.5 414.5 263.5Z" fill="white"/>
<path d="M384.5 106H374.5C372.511 106 370.603 105.21 369.197 103.803C367.79 102.397 367 100.489 367 98.5C367 96.5109 367.79 94.6032 369.197 93.1967C370.603 91.7902 372.511 91 374.5 91H384.5C386.489 91 388.397 91.7902 389.803 93.1967C391.21 94.6032 392 96.5109 392 98.5C392 100.489 391.21 102.397 389.803 103.803C388.397 105.21 386.489 106 384.5 106ZM424.5 106H414.5C412.511 106 410.603 105.21 409.197 103.803C407.79 102.397 407 100.489 407 98.5C407 96.5109 407.79 94.6032 409.197 93.1967C410.603 91.7902 412.511 91 414.5 91H424.5C426.489 91 428.397 91.7902 429.803 93.1967C431.21 94.6032 432 96.5109 432 98.5C432 100.489 431.21 102.397 429.803 103.803C428.397 105.21 426.489 106 424.5 106Z" fill="#8397CC"/>
</g>
<defs>
<clipPath id="clip0_17_147">
<rect width="512" height="512" fill="white"/>
</clipPath>
</defs>
</svg>
