<svg width="621" height="621" viewBox="0 0 621 621" fill="none" xmlns="http://www.w3.org/2000/svg">
<path d="M29.1094 417.234H591.891V456.047C591.891 461.194 589.846 466.13 586.207 469.769C582.567 473.409 577.631 475.453 572.484 475.453H48.5156C43.3688 475.453 38.4327 473.409 34.7933 469.769C31.154 466.13 29.1094 461.194 29.1094 456.047V417.234Z" fill="#808080"/>
<path d="M29.1094 417.234H591.891V446.344H29.1094V417.234Z" fill="#6B6B6B"/>
<path d="M56.5692 106.734H561.132V417.234H56.5692V106.734Z" fill="#94E6FF"/>
<path d="M56.5692 106.734H561.132V135.844H56.5692V106.734Z" fill="#5CB7E6"/>
<path d="M246.653 417.234H382.497V446.344H246.653V417.234Z" fill="#FFCC40"/>
<path d="M572.484 203.766H436.641C425.923 203.766 417.234 212.454 417.234 223.172V494.859C417.234 505.577 425.923 514.266 436.641 514.266H572.484C583.202 514.266 591.891 505.577 591.891 494.859V223.172C591.891 212.454 583.202 203.766 572.484 203.766Z" fill="#FC7A71"/>
<path d="M436.641 203.766H572.484C577.631 203.766 582.567 205.81 586.207 209.45C589.846 213.089 591.891 218.025 591.891 223.172V232.875H417.234V223.172C417.234 218.025 419.279 213.089 422.918 209.45C426.558 205.81 431.494 203.766 436.641 203.766Z" fill="#DB584F"/>
<path d="M417.234 475.453H591.891V494.859C591.891 500.006 589.846 504.942 586.207 508.582C582.567 512.221 577.631 514.266 572.484 514.266H436.641C431.494 514.266 426.558 512.221 422.918 508.582C419.279 504.942 417.234 500.006 417.234 494.859V475.453Z" fill="#EBE3D8"/>
<path d="M291.094 155.25H329.906C332.48 155.25 334.948 154.228 336.767 152.408C338.587 150.588 339.609 148.12 339.609 145.547C339.609 142.973 338.587 140.505 336.767 138.686C334.948 136.866 332.48 135.844 329.906 135.844H291.094C288.52 135.844 286.052 136.866 284.233 138.686C282.413 140.505 281.391 142.973 281.391 145.547C281.391 148.12 282.413 150.588 284.233 152.408C286.052 154.228 288.52 155.25 291.094 155.25Z" fill="#0A1827"/>
<path d="M572.484 194.062H570.835V106.734C570.835 104.161 569.813 101.693 567.993 99.8732C566.173 98.0535 563.705 97.0312 561.132 97.0312H56.5692C53.9958 97.0312 51.5278 98.0535 49.7081 99.8732C47.8884 101.693 46.8661 104.161 46.8661 106.734V407.531H29.1094C26.5359 407.531 24.0679 408.554 22.2482 410.373C20.4285 412.193 19.4063 414.661 19.4062 417.234V456.047C19.4063 463.767 22.4731 471.171 27.9322 476.63C33.3913 482.089 40.7953 485.156 48.5156 485.156H407.531V494.859C407.531 502.58 410.598 509.984 416.057 515.443C421.516 520.902 428.92 523.969 436.641 523.969H572.484C580.205 523.969 587.609 520.902 593.068 515.443C598.527 509.984 601.594 502.58 601.594 494.859V223.172C601.594 215.452 598.527 208.048 593.068 202.588C587.609 197.129 580.205 194.062 572.484 194.062ZM66.2723 116.438H551.429V194.062H436.641C428.92 194.062 421.516 197.129 416.057 202.588C410.598 208.048 407.531 215.452 407.531 223.172V407.531H66.2723V116.438ZM256.357 426.938H372.794V436.641H256.357V426.938ZM48.5156 465.75C45.9422 465.75 43.4742 464.728 41.6545 462.908C39.8348 461.088 38.8125 458.62 38.8125 456.047V426.938H236.95V446.344C236.95 448.917 237.973 451.385 239.792 453.205C241.612 455.025 244.08 456.047 246.653 456.047H382.497C385.071 456.047 387.539 455.025 389.358 453.205C391.178 451.385 392.2 448.917 392.2 446.344V426.938H407.531V465.75H48.5156ZM582.188 494.859C582.188 497.433 581.165 499.901 579.346 501.721C577.526 503.54 575.058 504.562 572.484 504.562H436.641C434.067 504.562 431.599 503.54 429.779 501.721C427.96 499.901 426.938 497.433 426.938 494.859V223.172C426.938 220.598 427.96 218.13 429.779 216.311C431.599 214.491 434.067 213.469 436.641 213.469H572.484C575.058 213.469 577.526 214.491 579.346 216.311C581.165 218.13 582.188 220.598 582.188 223.172V494.859Z" fill="#0A1827"/>
<path d="M514.266 223.172H494.859C492.286 223.172 489.818 224.194 487.998 226.014C486.179 227.834 485.156 230.302 485.156 232.875C485.156 235.448 486.179 237.916 487.998 239.736C489.818 241.556 492.286 242.578 494.859 242.578H514.266C516.839 242.578 519.307 241.556 521.127 239.736C522.946 237.916 523.969 235.448 523.969 232.875C523.969 230.302 522.946 227.834 521.127 226.014C519.307 224.194 516.839 223.172 514.266 223.172Z" fill="#0A1827"/>
</svg>
