<svg width="26" height="37" viewBox="0 0 26 37" fill="none" xmlns="http://www.w3.org/2000/svg">
<path d="M12.978 0.5C6.15801 0.5 0.603005 6.055 0.603005 12.875C0.602154 13.0206 0.624431 13.1654 0.669005 13.304C0.781755 17.649 2.66275 21.444 4.8765 24.9695C7.1645 28.6077 9.81276 32.0178 11.5123 35.4993C11.6237 35.7294 11.7971 35.9238 12.013 36.0608C12.2289 36.1978 12.4787 36.2719 12.7344 36.2748C12.99 36.2776 13.2414 36.2091 13.4603 36.077C13.6792 35.9449 13.8569 35.7543 13.9735 35.5268C15.7555 32.048 18.5385 28.6325 20.9448 24.997C23.3455 21.3615 25.397 17.4345 25.397 12.897C25.3995 12.7223 25.3687 12.5487 25.3063 12.3855C25.0423 5.79925 19.6275 0.5 12.978 0.5ZM12.978 3.25C18.313 3.25 22.603 7.54275 22.603 12.875C22.6016 12.9738 22.6108 13.0724 22.6305 13.1692C22.548 16.7662 20.8815 20.0993 18.643 23.4818C16.7538 26.3445 14.6198 29.3008 12.7745 32.3725C11.0228 29.3145 9.00425 26.3637 7.21125 23.5092C5.02775 20.036 3.397 16.6205 3.397 12.8942C3.39766 12.8085 3.3903 12.7229 3.375 12.6385C3.42827 10.1281 4.46383 7.73863 6.25931 5.98325C8.05479 4.22788 10.467 3.24656 12.978 3.25V3.25ZM12.978 8.761C10.7175 8.761 8.85301 10.6228 8.85301 12.886C8.85301 15.1465 10.7175 17.011 12.978 17.011C15.2413 17.011 17.103 15.1465 17.103 12.886C17.103 10.6228 15.2413 8.761 12.978 8.761V8.761ZM12.978 11.511C13.7535 11.511 14.353 12.1105 14.353 12.886C14.353 13.6615 13.7535 14.261 12.978 14.261C12.7967 14.2636 12.6168 14.2298 12.4488 14.1616C12.2808 14.0934 12.1282 13.9922 12 13.864C11.8718 13.7358 11.7706 13.5832 11.7024 13.4152C11.6342 13.2472 11.6004 13.0673 11.603 12.886C11.603 12.1105 12.2025 11.511 12.978 11.511V11.511Z" fill="white"/>
</svg>
