<svg width="306" height="128" viewBox="0 0 306 128" fill="none" xmlns="http://www.w3.org/2000/svg">
<rect width="306" height="128" rx="20" fill="white"/>
<g clip-path="url(#clip0_164_27)">
<path d="M293.82 14H10V119H293.82V14Z" fill="white"/>
<path d="M18.5146 91.5385V35H39.8012C45.378 35 50.2577 36.2115 54.4403 38.6346C58.6727 41.0039 61.959 44.3154 64.2994 48.5692C66.6397 52.823 67.8098 57.7231 67.8098 63.2692C67.8098 68.8153 66.6397 73.7154 64.2994 77.9692C61.959 82.223 58.6727 85.5615 54.4403 87.9846C50.2577 90.3539 45.378 91.5385 39.8012 91.5385H18.5146ZM24.0417 86.3692H39.5024C44.1332 86.3692 48.1415 85.4 51.5274 83.4615C54.9632 81.4693 57.627 78.7499 59.5192 75.3038C61.4114 71.8038 62.3574 67.7923 62.3574 63.2692C62.3574 58.6924 61.4114 54.6807 59.5192 51.2346C57.627 47.7885 54.9632 45.0962 51.5274 43.1577C48.1415 41.1654 44.1332 40.1692 39.5024 40.1692H24.0417V86.3692Z" fill="#333333"/>
<path d="M73.6934 91.5385L97.594 35H103.046L126.947 91.5385H121.121L99.1625 38.4731H101.403L79.4445 91.5385H73.6934ZM83.1042 76.4346L84.7474 71.5885H115.146L116.789 76.4346H83.1042Z" fill="#333333"/>
<path d="M16.8936 36.4229L39.5334 63.3187L62.1733 90.2144" stroke="white" stroke-width="5"/>
<path d="M72.2012 35.8164L124.984 102.648" stroke="white" stroke-width="5"/>
<path d="M146.996 62.4615V45.5H153.382C155.055 45.5 156.519 45.8635 157.774 46.5904C159.044 47.3012 160.029 48.2946 160.732 49.5708C161.434 50.8469 161.785 52.3169 161.785 53.9808C161.785 55.6446 161.434 57.1146 160.732 58.3908C160.029 59.6669 159.044 60.6685 157.774 61.3954C156.519 62.1062 155.055 62.4615 153.382 62.4615H146.996ZM148.654 60.9108H153.292C154.682 60.9108 155.884 60.62 156.9 60.0385C157.931 59.4408 158.73 58.625 159.297 57.5912C159.865 56.5412 160.149 55.3377 160.149 53.9808C160.149 52.6077 159.865 51.4042 159.297 50.3704C158.73 49.3365 157.931 48.5288 156.9 47.9473C155.884 47.3496 154.682 47.0508 153.292 47.0508H148.654V60.9108ZM162.999 62.4615L170.169 45.5H171.805L178.975 62.4615H177.227L170.64 46.5419H171.312L164.724 62.4615H162.999ZM165.822 57.9304L166.315 56.4765H175.435L175.928 57.9304H165.822Z" fill="#333333"/>
<path d="M144.486 91.5386L151.657 74.577H153.292L160.462 91.5386H158.715L152.127 75.6189H152.799L146.212 91.5386H144.486ZM147.31 87.0074L147.803 85.5536H156.922L157.415 87.0074H147.31ZM167.382 91.6839C166.217 91.6839 165.096 91.482 164.021 91.0782C162.96 90.6582 162.138 90.1251 161.556 89.4789L162.206 88.0978C162.758 88.6793 163.498 89.172 164.424 89.5759C165.365 89.9636 166.351 90.1574 167.382 90.1574C168.368 90.1574 169.167 90.0282 169.779 89.7697C170.407 89.4951 170.862 89.1316 171.146 88.6793C171.445 88.227 171.594 87.7263 171.594 87.177C171.594 86.5147 171.415 85.9816 171.056 85.5778C170.713 85.174 170.257 84.8589 169.69 84.6328C169.122 84.3905 168.495 84.1805 167.807 84.0028C167.12 83.8251 166.433 83.6393 165.746 83.4455C165.059 83.2355 164.424 82.9609 163.841 82.6216C163.274 82.2824 162.811 81.8382 162.452 81.2889C162.109 80.7236 161.937 79.9886 161.937 79.084C161.937 78.2439 162.138 77.4766 162.542 76.782C162.96 76.0713 163.595 75.5059 164.446 75.0859C165.298 74.6497 166.388 74.4316 167.718 74.4316C168.599 74.4316 169.473 74.569 170.339 74.8436C171.206 75.102 171.953 75.4655 172.58 75.9339L172.02 77.3636C171.348 76.8789 170.631 76.5236 169.869 76.2974C169.122 76.0713 168.397 75.9582 167.695 75.9582C166.754 75.9582 165.978 76.0955 165.365 76.3701C164.753 76.6447 164.297 77.0163 163.998 77.4847C163.714 77.937 163.573 78.4539 163.573 79.0355C163.573 79.6978 163.744 80.2309 164.088 80.6347C164.446 81.0386 164.909 81.3536 165.477 81.5797C166.06 81.8059 166.695 82.0078 167.382 82.1855C168.069 82.3632 168.749 82.557 169.421 82.767C170.108 82.977 170.735 83.2516 171.303 83.5909C171.885 83.914 172.349 84.3501 172.692 84.8993C173.051 85.4486 173.23 86.1674 173.23 87.0559C173.23 87.8797 173.021 88.647 172.602 89.3578C172.184 90.0524 171.542 90.6178 170.675 91.0539C169.824 91.4739 168.726 91.6839 167.382 91.6839ZM181.166 91.6839C180.001 91.6839 178.881 91.482 177.805 91.0782C176.745 90.6582 175.923 90.1251 175.341 89.4789L175.99 88.0978C176.543 88.6793 177.283 89.172 178.209 89.5759C179.15 89.9636 180.136 90.1574 181.166 90.1574C182.152 90.1574 182.951 90.0282 183.564 89.7697C184.191 89.4951 184.647 89.1316 184.931 88.6793C185.23 88.227 185.379 87.7263 185.379 87.177C185.379 86.5147 185.2 85.9816 184.841 85.5778C184.498 85.174 184.042 84.8589 183.474 84.6328C182.907 84.3905 182.279 84.1805 181.592 84.0028C180.905 83.8251 180.218 83.6393 179.531 83.4455C178.844 83.2355 178.209 82.9609 177.626 82.6216C177.058 82.2824 176.595 81.8382 176.237 81.2889C175.893 80.7236 175.722 79.9886 175.722 79.084C175.722 78.2439 175.923 77.4766 176.327 76.782C176.745 76.0713 177.38 75.5059 178.231 75.0859C179.083 74.6497 180.173 74.4316 181.502 74.4316C182.384 74.4316 183.258 74.569 184.124 74.8436C184.991 75.102 185.737 75.4655 186.365 75.9339L185.805 77.3636C185.132 76.8789 184.415 76.5236 183.654 76.2974C182.907 76.0713 182.182 75.9582 181.48 75.9582C180.539 75.9582 179.762 76.0955 179.15 76.3701C178.537 76.6447 178.082 77.0163 177.783 77.4847C177.499 77.937 177.357 78.4539 177.357 79.0355C177.357 79.6978 177.529 80.2309 177.873 80.6347C178.231 81.0386 178.694 81.3536 179.262 81.5797C179.844 81.8059 180.479 82.0078 181.166 82.1855C181.854 82.3632 182.533 82.557 183.205 82.767C183.893 82.977 184.52 83.2516 185.088 83.5909C185.67 83.914 186.133 84.3501 186.477 84.8993C186.835 85.4486 187.015 86.1674 187.015 87.0559C187.015 87.8797 186.805 88.647 186.387 89.3578C185.969 90.0524 185.327 90.6178 184.46 91.0539C183.609 91.4739 182.511 91.6839 181.166 91.6839ZM196.947 91.6839C194.945 91.6839 193.369 91.062 192.219 89.8182C191.069 88.5743 190.494 86.7328 190.494 84.2936V74.577H192.152V84.2209C192.152 86.224 192.57 87.702 193.407 88.6551C194.243 89.6082 195.423 90.0847 196.947 90.0847C198.485 90.0847 199.673 89.6082 200.51 88.6551C201.346 87.702 201.764 86.224 201.764 84.2209V74.577H203.378V84.2936C203.378 86.7328 202.802 88.5743 201.652 89.8182C200.517 91.062 198.948 91.6839 196.947 91.6839ZM208.374 91.5386V74.577H214.245C215.574 74.577 216.717 74.8113 217.673 75.2797C218.629 75.732 219.361 76.3943 219.869 77.2666C220.392 78.1228 220.653 79.1647 220.653 80.3924C220.653 81.5878 220.392 82.6216 219.869 83.4939C219.361 84.3501 218.629 85.0124 217.673 85.4809C216.717 85.9332 215.574 86.1593 214.245 86.1593H209.293L210.032 85.3355V91.5386H208.374ZM219.085 91.5386L215.052 85.3839H216.844L220.9 91.5386H219.085ZM210.032 85.4809L209.293 84.6328H214.2C215.769 84.6328 216.956 84.2613 217.763 83.5182C218.584 82.7751 218.995 81.7332 218.995 80.3924C218.995 79.0355 218.584 77.9855 217.763 77.2424C216.956 76.4993 215.769 76.1278 214.2 76.1278H209.293L210.032 75.2797V85.4809ZM222.057 91.5386L229.228 74.577H230.863L238.034 91.5386H236.286L229.698 75.6189H230.37L223.783 91.5386H222.057ZM224.881 87.0074L225.374 85.5536H234.493L234.986 87.0074H224.881ZM240.628 91.5386V74.577H241.995L252.818 89.3093H252.101V74.577H253.736V91.5386H252.369L241.569 76.8063H242.286V91.5386H240.628ZM265.667 91.6839C264.487 91.6839 263.397 91.4739 262.396 91.0539C261.395 90.6178 260.529 90.012 259.797 89.2366C259.065 88.4613 258.49 87.5486 258.071 86.4986C257.668 85.4486 257.466 84.3016 257.466 83.0578C257.466 81.8139 257.668 80.667 258.071 79.617C258.49 78.567 259.065 77.6543 259.797 76.8789C260.544 76.1036 261.417 75.5059 262.418 75.0859C263.419 74.6497 264.51 74.4316 265.69 74.4316C266.825 74.4316 267.893 74.6416 268.894 75.0616C269.895 75.4655 270.739 76.0793 271.426 76.9032L270.373 78.042C269.73 77.3313 269.021 76.8224 268.244 76.5155C267.467 76.1924 266.631 76.0309 265.734 76.0309C264.793 76.0309 263.919 76.2086 263.113 76.5639C262.306 76.9032 261.604 77.3959 261.007 78.042C260.409 78.672 259.939 79.4151 259.595 80.2713C259.266 81.1113 259.102 82.0401 259.102 83.0578C259.102 84.0755 259.266 85.0124 259.595 85.8686C259.939 86.7086 260.409 87.4516 261.007 88.0978C261.604 88.7278 262.306 89.2205 263.113 89.5759C263.919 89.9151 264.793 90.0847 265.734 90.0847C266.631 90.0847 267.467 89.9232 268.244 89.6001C269.021 89.277 269.73 88.7601 270.373 88.0493L271.426 89.1882C270.739 90.012 269.895 90.6339 268.894 91.0539C267.893 91.4739 266.817 91.6839 265.667 91.6839ZM276.439 82.1613H284.73V83.6878H276.439V82.1613ZM276.618 89.9878H286.051V91.5386H274.96V74.577H285.715V76.1278H276.618V89.9878Z" fill="#953833"/>
<path d="M136.226 30.1538V101.231" stroke="#A0A0A0"/>
</g>
<defs>
<clipPath id="clip0_164_27">
<rect width="283.82" height="105" fill="white" transform="translate(10 14)"/>
</clipPath>
</defs>
</svg>
