<svg width="77" height="77" viewBox="0 0 77 77" fill="none" xmlns="http://www.w3.org/2000/svg">
<g clip-path="url(#clip0_20_44)">
<path fill-rule="evenodd" clip-rule="evenodd" d="M65.3414 2.40625H11.6586C6.57478 2.40625 2.40625 6.57523 2.40625 11.6584V65.3414C2.40625 70.4246 6.57478 74.5938 11.6586 74.5938H65.3413C70.4257 74.5938 74.5938 70.4246 74.5938 65.3416V11.6584C74.5938 6.57523 70.4257 2.40625 65.3414 2.40625ZM27.2207 37.2686V59.5547H17.4453V31.4316H27.2207V37.2686ZM22.3135 27.24C19.5939 27.24 17.3873 25.0349 17.3873 22.3138C17.3873 19.5921 19.5939 17.3898 22.3135 17.3898C25.0367 17.3898 27.2413 19.5923 27.2413 22.3138C27.2413 25.0349 25.0369 27.24 22.3135 27.24ZM59.5547 44.2148V59.5547H51.1328V45.8943C51.1328 42.6233 50.7786 38.4162 46.2956 38.4162C41.7445 38.4162 41.0566 41.9773 41.0566 45.6584V59.5547H32.9355V31.4316H40.7559V35.1914H40.8392C42.0056 33.0859 44.8632 31.4286 49.1183 31.4286C56.2878 31.4286 58.7241 34.8189 59.3908 40.123C59.549 41.3678 59.61 42.7109 59.61 44.2148H59.5547Z" fill="white"/>
</g>
<defs>
<clipPath id="clip0_20_44">
<rect width="77" height="77" fill="white"/>
</clipPath>
</defs>
</svg>
