<svg width="190" height="65" viewBox="0 0 190 65" fill="none" xmlns="http://www.w3.org/2000/svg">
<rect width="190" height="65" fill="white"/>
<path d="M5.7 48V13H19.95C23.6833 13 26.95 13.75 29.75 15.25C32.5833 16.7167 34.7833 18.7667 36.35 21.4C37.9167 24.0333 38.7 27.0667 38.7 30.5C38.7 33.9333 37.9167 36.9667 36.35 39.6C34.7833 42.2333 32.5833 44.3 29.75 45.8C26.95 47.2667 23.6833 48 19.95 48H5.7ZM9.4 44.8H19.75C22.85 44.8 25.5333 44.2 27.8 43C30.1 41.7667 31.8833 40.0833 33.15 37.95C34.4167 35.7833 35.05 33.3 35.05 30.5C35.05 27.6667 34.4167 25.1833 33.15 23.05C31.8833 20.9167 30.1 19.25 27.8 18.05C25.5333 16.8167 22.85 16.2 19.75 16.2H9.4V44.8Z" fill="#333333"/>
<path d="M42.6384 48L58.6384 13H62.2884L78.2884 48H74.3884L59.6884 15.15H61.1884L46.4884 48H42.6384ZM48.9384 38.65L50.0384 35.65H70.3884L71.4884 38.65H48.9384Z" fill="#333333"/>
<path d="M4.61502 13.8809L19.771 30.5307L34.927 47.1804" stroke="white" stroke-width="5"/>
<path d="M41.6399 13.5054L76.9744 54.8771" stroke="white" stroke-width="5"/>
<path d="M91.71 30V19.5H95.985C97.105 19.5 98.085 19.725 98.925 20.175C99.775 20.615 100.435 21.23 100.905 22.02C101.375 22.81 101.61 23.72 101.61 24.75C101.61 25.78 101.375 26.69 100.905 27.48C100.435 28.27 99.775 28.89 98.925 29.34C98.085 29.78 97.105 30 95.985 30H91.71ZM92.82 29.04H95.925C96.855 29.04 97.66 28.86 98.34 28.5C99.03 28.13 99.565 27.625 99.945 26.985C100.325 26.335 100.515 25.59 100.515 24.75C100.515 23.9 100.325 23.155 99.945 22.515C99.565 21.875 99.03 21.375 98.34 21.015C97.66 20.645 96.855 20.46 95.925 20.46H92.82V29.04ZM102.423 30L107.223 19.5H108.318L113.118 30H111.948L107.538 20.145H107.988L103.578 30H102.423ZM104.313 27.195L104.643 26.295H110.748L111.078 27.195H104.313Z" fill="#333333"/>
<path d="M90.03 48L94.83 37.5H95.925L100.725 48H99.555L95.145 38.145H95.595L91.185 48H90.03ZM91.92 45.195L92.25 44.295H98.355L98.685 45.195H91.92ZM105.357 48.09C104.577 48.09 103.827 47.965 103.107 47.715C102.397 47.455 101.847 47.125 101.457 46.725L101.892 45.87C102.262 46.23 102.757 46.535 103.377 46.785C104.007 47.025 104.667 47.145 105.357 47.145C106.017 47.145 106.552 47.065 106.962 46.905C107.382 46.735 107.687 46.51 107.877 46.23C108.077 45.95 108.177 45.64 108.177 45.3C108.177 44.89 108.057 44.56 107.817 44.31C107.587 44.06 107.282 43.865 106.902 43.725C106.522 43.575 106.102 43.445 105.642 43.335C105.182 43.225 104.722 43.11 104.262 42.99C103.802 42.86 103.377 42.69 102.987 42.48C102.607 42.27 102.297 41.995 102.057 41.655C101.827 41.305 101.712 40.85 101.712 40.29C101.712 39.77 101.847 39.295 102.117 38.865C102.397 38.425 102.822 38.075 103.392 37.815C103.962 37.545 104.692 37.41 105.582 37.41C106.172 37.41 106.757 37.495 107.337 37.665C107.917 37.825 108.417 38.05 108.837 38.34L108.462 39.225C108.012 38.925 107.532 38.705 107.022 38.565C106.522 38.425 106.037 38.355 105.567 38.355C104.937 38.355 104.417 38.44 104.007 38.61C103.597 38.78 103.292 39.01 103.092 39.3C102.902 39.58 102.807 39.9 102.807 40.26C102.807 40.67 102.922 41 103.152 41.25C103.392 41.5 103.702 41.695 104.082 41.835C104.472 41.975 104.897 42.1 105.357 42.21C105.817 42.32 106.272 42.44 106.722 42.57C107.182 42.7 107.602 42.87 107.982 43.08C108.372 43.28 108.682 43.55 108.912 43.89C109.152 44.23 109.272 44.675 109.272 45.225C109.272 45.735 109.132 46.21 108.852 46.65C108.572 47.08 108.142 47.43 107.562 47.7C106.992 47.96 106.257 48.09 105.357 48.09ZM114.585 48.09C113.805 48.09 113.055 47.965 112.335 47.715C111.625 47.455 111.075 47.125 110.685 46.725L111.12 45.87C111.49 46.23 111.985 46.535 112.605 46.785C113.235 47.025 113.895 47.145 114.585 47.145C115.245 47.145 115.78 47.065 116.19 46.905C116.61 46.735 116.915 46.51 117.105 46.23C117.305 45.95 117.405 45.64 117.405 45.3C117.405 44.89 117.285 44.56 117.045 44.31C116.815 44.06 116.51 43.865 116.13 43.725C115.75 43.575 115.33 43.445 114.87 43.335C114.41 43.225 113.95 43.11 113.49 42.99C113.03 42.86 112.605 42.69 112.215 42.48C111.835 42.27 111.525 41.995 111.285 41.655C111.055 41.305 110.94 40.85 110.94 40.29C110.94 39.77 111.075 39.295 111.345 38.865C111.625 38.425 112.05 38.075 112.62 37.815C113.19 37.545 113.92 37.41 114.81 37.41C115.4 37.41 115.985 37.495 116.565 37.665C117.145 37.825 117.645 38.05 118.065 38.34L117.69 39.225C117.24 38.925 116.76 38.705 116.25 38.565C115.75 38.425 115.265 38.355 114.795 38.355C114.165 38.355 113.645 38.44 113.235 38.61C112.825 38.78 112.52 39.01 112.32 39.3C112.13 39.58 112.035 39.9 112.035 40.26C112.035 40.67 112.15 41 112.38 41.25C112.62 41.5 112.93 41.695 113.31 41.835C113.7 41.975 114.125 42.1 114.585 42.21C115.045 42.32 115.5 42.44 115.95 42.57C116.41 42.7 116.83 42.87 117.21 43.08C117.6 43.28 117.91 43.55 118.14 43.89C118.38 44.23 118.5 44.675 118.5 45.225C118.5 45.735 118.36 46.21 118.08 46.65C117.8 47.08 117.37 47.43 116.79 47.7C116.22 47.96 115.485 48.09 114.585 48.09ZM125.149 48.09C123.809 48.09 122.754 47.705 121.984 46.935C121.214 46.165 120.829 45.025 120.829 43.515V37.5H121.939V43.47C121.939 44.71 122.219 45.625 122.779 46.215C123.339 46.805 124.129 47.1 125.149 47.1C126.179 47.1 126.974 46.805 127.534 46.215C128.094 45.625 128.374 44.71 128.374 43.47V37.5H129.454V43.515C129.454 45.025 129.069 46.165 128.299 46.935C127.539 47.705 126.489 48.09 125.149 48.09ZM132.799 48V37.5H136.729C137.619 37.5 138.384 37.645 139.024 37.935C139.664 38.215 140.154 38.625 140.494 39.165C140.844 39.695 141.019 40.34 141.019 41.1C141.019 41.84 140.844 42.48 140.494 43.02C140.154 43.55 139.664 43.96 139.024 44.25C138.384 44.53 137.619 44.67 136.729 44.67H133.414L133.909 44.16V48H132.799ZM139.969 48L137.269 44.19H138.469L141.184 48H139.969ZM133.909 44.25L133.414 43.725H136.699C137.749 43.725 138.544 43.495 139.084 43.035C139.634 42.575 139.909 41.93 139.909 41.1C139.909 40.26 139.634 39.61 139.084 39.15C138.544 38.69 137.749 38.46 136.699 38.46H133.414L133.909 37.935V44.25ZM141.959 48L146.759 37.5H147.854L152.654 48H151.484L147.074 38.145H147.524L143.114 48H141.959ZM143.849 45.195L144.179 44.295H150.284L150.614 45.195H143.849ZM154.391 48V37.5H155.306L162.551 46.62H162.071V37.5H163.166V48H162.251L155.021 38.88H155.501V48H154.391ZM171.153 48.09C170.363 48.09 169.633 47.96 168.963 47.7C168.293 47.43 167.713 47.055 167.223 46.575C166.733 46.095 166.348 45.53 166.068 44.88C165.798 44.23 165.663 43.52 165.663 42.75C165.663 41.98 165.798 41.27 166.068 40.62C166.348 39.97 166.733 39.405 167.223 38.925C167.723 38.445 168.308 38.075 168.978 37.815C169.648 37.545 170.378 37.41 171.168 37.41C171.928 37.41 172.643 37.54 173.313 37.8C173.983 38.05 174.548 38.43 175.008 38.94L174.303 39.645C173.873 39.205 173.398 38.89 172.878 38.7C172.358 38.5 171.798 38.4 171.198 38.4C170.568 38.4 169.983 38.51 169.443 38.73C168.903 38.94 168.433 39.245 168.033 39.645C167.633 40.035 167.318 40.495 167.088 41.025C166.868 41.545 166.758 42.12 166.758 42.75C166.758 43.38 166.868 43.96 167.088 44.49C167.318 45.01 167.633 45.47 168.033 45.87C168.433 46.26 168.903 46.565 169.443 46.785C169.983 46.995 170.568 47.1 171.198 47.1C171.798 47.1 172.358 47 172.878 46.8C173.398 46.6 173.873 46.28 174.303 45.84L175.008 46.545C174.548 47.055 173.983 47.44 173.313 47.7C172.643 47.96 171.923 48.09 171.153 48.09ZM178.364 42.195H183.914V43.14H178.364V42.195ZM178.484 47.04H184.799V48H177.374V37.5H184.574V38.46H178.484V47.04Z" fill="#953833"/>
<line x1="84.5" y1="10" x2="84.5" y2="54" stroke="#A0A0A0"/>
</svg>
