<svg width="190" height="65" viewBox="0 0 190 65" fill="none" xmlns="http://www.w3.org/2000/svg">
<rect width="176" height="65" fill="white"/>
<path d="M79.26 29V12.8H85.54V14.48H81.52V19.84H84.78V21.44H81.52V27.38H85.58V29H79.26ZM90.3845 29.16C89.4379 29.16 88.7179 28.9733 88.2245 28.6C87.7445 28.2133 87.4179 27.6733 87.2445 26.98C87.0845 26.2867 87.0045 25.48 87.0045 24.56V21.9C87.0045 20.9267 87.0912 20.1 87.2645 19.42C87.4379 18.7267 87.7645 18.2 88.2445 17.84C88.7379 17.4667 89.4512 17.28 90.3845 17.28C91.2245 17.28 91.8712 17.42 92.3245 17.7C92.7912 17.9667 93.1112 18.3733 93.2845 18.92C93.4579 19.4533 93.5445 20.12 93.5445 20.92V21.6H91.6045V20.9C91.6045 20.3933 91.5712 19.9933 91.5045 19.7C91.4379 19.4067 91.3179 19.1933 91.1445 19.06C90.9712 18.9267 90.7245 18.86 90.4045 18.86C90.0579 18.86 89.7912 18.94 89.6045 19.1C89.4179 19.26 89.2912 19.5333 89.2245 19.92C89.1712 20.2933 89.1445 20.8067 89.1445 21.46V25.1C89.1445 26.0867 89.2379 26.7467 89.4245 27.08C89.6112 27.4133 89.9445 27.58 90.4245 27.58C90.7845 27.58 91.0445 27.5 91.2045 27.34C91.3779 27.1667 91.4845 26.9267 91.5245 26.62C91.5779 26.3133 91.6045 25.9667 91.6045 25.58V24.64H93.5445V25.44C93.5445 26.2133 93.4512 26.88 93.2645 27.44C93.0912 28 92.7712 28.4267 92.3045 28.72C91.8512 29.0133 91.2112 29.16 90.3845 29.16ZM98.6272 29.16C97.7739 29.16 97.1005 28.9867 96.6072 28.64C96.1139 28.2933 95.7605 27.8 95.5472 27.16C95.3472 26.52 95.2472 25.7667 95.2472 24.9V21.54C95.2472 20.6733 95.3472 19.92 95.5472 19.28C95.7605 18.64 96.1139 18.1467 96.6072 17.8C97.1005 17.4533 97.7739 17.28 98.6272 17.28C99.4805 17.28 100.147 17.4533 100.627 17.8C101.121 18.1467 101.467 18.64 101.667 19.28C101.881 19.92 101.987 20.6733 101.987 21.54V24.9C101.987 25.7667 101.881 26.52 101.667 27.16C101.467 27.8 101.121 28.2933 100.627 28.64C100.147 28.9867 99.4805 29.16 98.6272 29.16ZM98.6272 27.58C99.0405 27.58 99.3272 27.46 99.4872 27.22C99.6605 26.98 99.7605 26.6667 99.7872 26.28C99.8272 25.88 99.8472 25.4667 99.8472 25.04V21.42C99.8472 20.98 99.8272 20.5667 99.7872 20.18C99.7605 19.7933 99.6605 19.48 99.4872 19.24C99.3272 18.9867 99.0405 18.86 98.6272 18.86C98.2139 18.86 97.9205 18.9867 97.7472 19.24C97.5739 19.48 97.4672 19.7933 97.4272 20.18C97.4005 20.5667 97.3872 20.98 97.3872 21.42V25.04C97.3872 25.4667 97.4005 25.88 97.4272 26.28C97.4672 26.6667 97.5739 26.98 97.7472 27.22C97.9205 27.46 98.2139 27.58 98.6272 27.58ZM108.183 29.18C107.037 29.18 106.143 28.94 105.503 28.46C104.877 27.98 104.437 27.3333 104.183 26.52C103.943 25.7067 103.823 24.8 103.823 23.8V18.08C103.823 16.9867 103.943 16.0333 104.183 15.22C104.437 14.4067 104.877 13.78 105.503 13.34C106.143 12.8867 107.037 12.66 108.183 12.66C109.197 12.66 109.997 12.8467 110.583 13.22C111.183 13.5933 111.61 14.1267 111.863 14.82C112.13 15.5133 112.263 16.3467 112.263 17.32V18.6H110.123V17.46C110.123 16.86 110.09 16.3333 110.023 15.88C109.97 15.4133 109.81 15.0533 109.543 14.8C109.277 14.5467 108.83 14.42 108.203 14.42C107.563 14.42 107.097 14.56 106.803 14.84C106.51 15.1067 106.317 15.4933 106.223 16C106.143 16.4933 106.103 17.0733 106.103 17.74V24.16C106.103 24.9733 106.17 25.62 106.303 26.1C106.437 26.5667 106.657 26.9 106.963 27.1C107.27 27.3 107.683 27.4 108.203 27.4C108.817 27.4 109.257 27.2667 109.523 27C109.79 26.72 109.957 26.34 110.023 25.86C110.09 25.38 110.123 24.82 110.123 24.18V22.98H112.263V24.18C112.263 25.1667 112.143 26.04 111.903 26.8C111.663 27.5467 111.25 28.1333 110.663 28.56C110.077 28.9733 109.25 29.18 108.183 29.18ZM117.416 29.16C116.563 29.16 115.89 28.9867 115.396 28.64C114.903 28.2933 114.55 27.8 114.336 27.16C114.136 26.52 114.036 25.7667 114.036 24.9V21.54C114.036 20.6733 114.136 19.92 114.336 19.28C114.55 18.64 114.903 18.1467 115.396 17.8C115.89 17.4533 116.563 17.28 117.416 17.28C118.27 17.28 118.936 17.4533 119.416 17.8C119.91 18.1467 120.256 18.64 120.456 19.28C120.67 19.92 120.776 20.6733 120.776 21.54V24.9C120.776 25.7667 120.67 26.52 120.456 27.16C120.256 27.8 119.91 28.2933 119.416 28.64C118.936 28.9867 118.27 29.16 117.416 29.16ZM117.416 27.58C117.83 27.58 118.116 27.46 118.276 27.22C118.45 26.98 118.55 26.6667 118.576 26.28C118.616 25.88 118.636 25.4667 118.636 25.04V21.42C118.636 20.98 118.616 20.5667 118.576 20.18C118.55 19.7933 118.45 19.48 118.276 19.24C118.116 18.9867 117.83 18.86 117.416 18.86C117.003 18.86 116.71 18.9867 116.536 19.24C116.363 19.48 116.256 19.7933 116.216 20.18C116.19 20.5667 116.176 20.98 116.176 21.42V25.04C116.176 25.4667 116.19 25.88 116.216 26.28C116.256 26.6667 116.363 26.98 116.536 27.22C116.71 27.46 117.003 27.58 117.416 27.58ZM122.732 29V17.44H124.872V18.58C125.259 18.22 125.686 17.9133 126.152 17.66C126.619 17.4067 127.132 17.28 127.692 17.28C128.159 17.28 128.512 17.4 128.752 17.64C129.006 17.88 129.179 18.18 129.272 18.54C129.379 18.9 129.432 19.2667 129.432 19.64V29H127.292V20.26C127.292 19.8467 127.232 19.5267 127.112 19.3C126.992 19.0733 126.746 18.96 126.372 18.96C126.132 18.96 125.879 19.0333 125.612 19.18C125.359 19.3133 125.112 19.48 124.872 19.68V29H122.732ZM132.201 29V19.02H130.821V17.44H132.201V16.84C132.201 16.12 132.255 15.5067 132.361 15C132.481 14.48 132.721 14.08 133.081 13.8C133.441 13.52 133.981 13.38 134.701 13.38C134.968 13.38 135.201 13.3933 135.401 13.42C135.615 13.4333 135.848 13.4667 136.101 13.52V15.08C135.981 15.0533 135.848 15.0333 135.701 15.02C135.555 14.9933 135.421 14.98 135.301 14.98C134.888 14.98 134.621 15.12 134.501 15.4C134.395 15.6667 134.341 16.0267 134.341 16.48V17.44H136.101V19.02H134.341V29H132.201ZM140.444 29.16C139.59 29.16 138.917 28.9867 138.424 28.64C137.93 28.2933 137.577 27.8 137.364 27.16C137.164 26.52 137.064 25.7667 137.064 24.9V21.54C137.064 20.6733 137.164 19.92 137.364 19.28C137.577 18.64 137.93 18.1467 138.424 17.8C138.917 17.4533 139.59 17.28 140.444 17.28C141.297 17.28 141.964 17.4533 142.444 17.8C142.937 18.1467 143.284 18.64 143.484 19.28C143.697 19.92 143.804 20.6733 143.804 21.54V24.9C143.804 25.7667 143.697 26.52 143.484 27.16C143.284 27.8 142.937 28.2933 142.444 28.64C141.964 28.9867 141.297 29.16 140.444 29.16ZM140.444 27.58C140.857 27.58 141.144 27.46 141.304 27.22C141.477 26.98 141.577 26.6667 141.604 26.28C141.644 25.88 141.664 25.4667 141.664 25.04V21.42C141.664 20.98 141.644 20.5667 141.604 20.18C141.577 19.7933 141.477 19.48 141.304 19.24C141.144 18.9867 140.857 18.86 140.444 18.86C140.03 18.86 139.737 18.9867 139.564 19.24C139.39 19.48 139.284 19.7933 139.244 20.18C139.217 20.5667 139.204 20.98 139.204 21.42V25.04C139.204 25.4667 139.217 25.88 139.244 26.28C139.284 26.6667 139.39 26.98 139.564 27.22C139.737 27.46 140.03 27.58 140.444 27.58ZM145.82 29V17.44H147.96V19.08C148.386 18.3733 148.813 17.9 149.24 17.66C149.666 17.42 150.093 17.3 150.52 17.3C150.573 17.3 150.62 17.3 150.66 17.3C150.713 17.3 150.78 17.3067 150.86 17.32V19.68C150.7 19.6133 150.513 19.56 150.3 19.52C150.1 19.4667 149.893 19.44 149.68 19.44C149.346 19.44 149.04 19.52 148.76 19.68C148.493 19.8267 148.226 20.12 147.96 20.56V29H145.82ZM155.265 29.16C154.665 29.16 154.179 29.0467 153.805 28.82C153.445 28.5933 153.179 28.2733 153.005 27.86C152.845 27.4467 152.765 26.96 152.765 26.4V18.86H151.545V17.44H152.765V14.06H154.905V17.44H156.765V18.86H154.905V26.26C154.905 26.7133 154.979 27.04 155.125 27.24C155.272 27.4267 155.552 27.52 155.965 27.52C156.072 27.52 156.192 27.5133 156.325 27.5C156.472 27.4867 156.612 27.4733 156.745 27.46V29.04C156.479 29.08 156.232 29.1067 156.005 29.12C155.779 29.1467 155.532 29.16 155.265 29.16Z" fill="#406732"/>
<path d="M81.81 51.135C81.11 51.135 80.525 50.985 80.055 50.685C79.595 50.385 79.245 49.97 79.005 49.44C78.765 48.91 78.625 48.295 78.585 47.595L80.085 47.19C80.115 47.62 80.18 48.035 80.28 48.435C80.39 48.835 80.565 49.165 80.805 49.425C81.045 49.675 81.38 49.8 81.81 49.8C82.25 49.8 82.58 49.68 82.8 49.44C83.03 49.19 83.145 48.835 83.145 48.375C83.145 47.825 83.02 47.385 82.77 47.055C82.52 46.715 82.205 46.375 81.825 46.035L79.785 44.235C79.385 43.885 79.09 43.505 78.9 43.095C78.71 42.675 78.615 42.16 78.615 41.55C78.615 40.66 78.87 39.97 79.38 39.48C79.89 38.99 80.585 38.745 81.465 38.745C81.945 38.745 82.365 38.81 82.725 38.94C83.095 39.06 83.4 39.25 83.64 39.51C83.89 39.77 84.085 40.1 84.225 40.5C84.375 40.89 84.475 41.35 84.525 41.88L83.085 42.27C83.055 41.87 82.995 41.505 82.905 41.175C82.815 40.835 82.655 40.565 82.425 40.365C82.205 40.155 81.885 40.05 81.465 40.05C81.045 40.05 80.715 40.165 80.475 40.395C80.245 40.615 80.13 40.945 80.13 41.385C80.13 41.755 80.19 42.06 80.31 42.3C80.44 42.54 80.645 42.785 80.925 43.035L82.98 44.835C83.44 45.235 83.845 45.715 84.195 46.275C84.545 46.825 84.72 47.48 84.72 48.24C84.72 48.84 84.595 49.36 84.345 49.8C84.095 50.23 83.75 50.56 83.31 50.79C82.88 51.02 82.38 51.135 81.81 51.135ZM88.2848 51.12C87.6448 51.12 87.1398 50.99 86.7698 50.73C86.3998 50.47 86.1348 50.1 85.9748 49.62C85.8248 49.14 85.7498 48.575 85.7498 47.925V45.405C85.7498 44.755 85.8248 44.19 85.9748 43.71C86.1348 43.23 86.3998 42.86 86.7698 42.6C87.1398 42.34 87.6448 42.21 88.2848 42.21C88.9248 42.21 89.4248 42.34 89.7848 42.6C90.1548 42.86 90.4148 43.23 90.5648 43.71C90.7248 44.19 90.8048 44.755 90.8048 45.405V47.925C90.8048 48.575 90.7248 49.14 90.5648 49.62C90.4148 50.1 90.1548 50.47 89.7848 50.73C89.4248 50.99 88.9248 51.12 88.2848 51.12ZM88.2848 49.935C88.5948 49.935 88.8098 49.845 88.9298 49.665C89.0598 49.485 89.1348 49.25 89.1548 48.96C89.1848 48.66 89.1998 48.35 89.1998 48.03V45.315C89.1998 44.985 89.1848 44.675 89.1548 44.385C89.1348 44.095 89.0598 43.86 88.9298 43.68C88.8098 43.49 88.5948 43.395 88.2848 43.395C87.9748 43.395 87.7548 43.49 87.6248 43.68C87.4948 43.86 87.4148 44.095 87.3848 44.385C87.3648 44.675 87.3548 44.985 87.3548 45.315V48.03C87.3548 48.35 87.3648 48.66 87.3848 48.96C87.4148 49.25 87.4948 49.485 87.6248 49.665C87.7548 49.845 87.9748 49.935 88.2848 49.935ZM92.4219 51V38.85H94.0269V51H92.4219ZM96.9446 51.12C96.6046 51.12 96.3396 51.03 96.1496 50.85C95.9596 50.67 95.8246 50.445 95.7446 50.175C95.6746 49.905 95.6396 49.63 95.6396 49.35V42.33H97.2446V48.87C97.2446 49.18 97.2896 49.425 97.3796 49.605C97.4696 49.775 97.6546 49.86 97.9346 49.86C98.1146 49.86 98.2996 49.81 98.4896 49.71C98.6896 49.6 98.8796 49.47 99.0596 49.32V42.33H100.665V51H99.0596V50.145C98.7796 50.415 98.4596 50.645 98.0996 50.835C97.7496 51.025 97.3646 51.12 96.9446 51.12ZM104.616 51.12C104.166 51.12 103.801 51.035 103.521 50.865C103.251 50.695 103.051 50.455 102.921 50.145C102.801 49.835 102.741 49.47 102.741 49.05V43.395H101.826V42.33H102.741V39.795H104.346V42.33H105.741V43.395H104.346V48.945C104.346 49.285 104.401 49.53 104.511 49.68C104.621 49.82 104.831 49.89 105.141 49.89C105.221 49.89 105.311 49.885 105.411 49.875C105.521 49.865 105.626 49.855 105.726 49.845V51.03C105.526 51.06 105.341 51.08 105.171 51.09C105.001 51.11 104.816 51.12 104.616 51.12ZM107.025 51V42.33H108.63V51H107.025ZM107.025 41.04V39.36H108.63V41.04H107.025ZM112.733 51.12C112.093 51.12 111.588 50.99 111.218 50.73C110.848 50.47 110.583 50.1 110.423 49.62C110.273 49.14 110.198 48.575 110.198 47.925V45.405C110.198 44.755 110.273 44.19 110.423 43.71C110.583 43.23 110.848 42.86 111.218 42.6C111.588 42.34 112.093 42.21 112.733 42.21C113.373 42.21 113.873 42.34 114.233 42.6C114.603 42.86 114.863 43.23 115.013 43.71C115.173 44.19 115.253 44.755 115.253 45.405V47.925C115.253 48.575 115.173 49.14 115.013 49.62C114.863 50.1 114.603 50.47 114.233 50.73C113.873 50.99 113.373 51.12 112.733 51.12ZM112.733 49.935C113.043 49.935 113.258 49.845 113.378 49.665C113.508 49.485 113.583 49.25 113.603 48.96C113.633 48.66 113.648 48.35 113.648 48.03V45.315C113.648 44.985 113.633 44.675 113.603 44.385C113.583 44.095 113.508 43.86 113.378 43.68C113.258 43.49 113.043 43.395 112.733 43.395C112.423 43.395 112.203 43.49 112.073 43.68C111.943 43.86 111.863 44.095 111.833 44.385C111.813 44.675 111.803 44.985 111.803 45.315V48.03C111.803 48.35 111.813 48.66 111.833 48.96C111.863 49.25 111.943 49.485 112.073 49.665C112.203 49.845 112.423 49.935 112.733 49.935ZM116.72 51V42.33H118.325V43.185C118.615 42.915 118.935 42.685 119.285 42.495C119.635 42.305 120.02 42.21 120.44 42.21C120.79 42.21 121.055 42.3 121.235 42.48C121.425 42.66 121.555 42.885 121.625 43.155C121.705 43.425 121.745 43.7 121.745 43.98V51H120.14V44.445C120.14 44.135 120.095 43.895 120.005 43.725C119.915 43.555 119.73 43.47 119.45 43.47C119.27 43.47 119.08 43.525 118.88 43.635C118.69 43.735 118.505 43.86 118.325 44.01V51H116.72ZM125.322 51.12C124.612 51.12 124.042 50.9 123.612 50.46C123.182 50.01 122.937 49.42 122.877 48.69L124.212 48.285C124.292 48.835 124.427 49.25 124.617 49.53C124.807 49.8 125.087 49.935 125.457 49.935C125.747 49.935 125.967 49.855 126.117 49.695C126.267 49.525 126.342 49.3 126.342 49.02C126.342 48.77 126.287 48.545 126.177 48.345C126.067 48.145 125.887 47.94 125.637 47.73L124.152 46.455C123.852 46.195 123.597 45.905 123.387 45.585C123.187 45.265 123.087 44.85 123.087 44.34C123.087 43.88 123.177 43.495 123.357 43.185C123.547 42.865 123.807 42.625 124.137 42.465C124.477 42.295 124.872 42.21 125.322 42.21C126.012 42.21 126.537 42.435 126.897 42.885C127.267 43.325 127.477 43.86 127.527 44.49L126.447 44.895C126.407 44.595 126.347 44.335 126.267 44.115C126.187 43.885 126.077 43.71 125.937 43.59C125.797 43.46 125.612 43.395 125.382 43.395C125.122 43.395 124.912 43.485 124.752 43.665C124.602 43.835 124.527 44.04 124.527 44.28C124.527 44.43 124.557 44.58 124.617 44.73C124.687 44.87 124.802 45.01 124.962 45.15L126.492 46.56C126.702 46.75 126.897 46.955 127.077 47.175C127.267 47.395 127.422 47.645 127.542 47.925C127.662 48.205 127.722 48.53 127.722 48.9C127.722 49.39 127.622 49.8 127.422 50.13C127.222 50.46 126.942 50.71 126.582 50.88C126.222 51.04 125.802 51.12 125.322 51.12Z" fill="#4BB559"/>
<circle cx="36" cy="32" r="25" fill="#406732"/>
<circle cx="36" cy="32" r="22.5" fill="white"/>
<path d="M39.5482 43.4933C39.3757 43.4924 39.2073 43.4485 39.0633 43.367C38.9193 43.2855 38.8059 43.1699 38.7369 43.0342C38.6894 42.9423 38.6635 42.8432 38.6607 42.7427C38.6578 42.6421 38.6781 42.5421 38.7203 42.4483C38.7625 42.3545 38.8259 42.2688 38.9068 42.196C38.9876 42.1232 39.0844 42.0648 39.1916 42.0242C40.1753 41.653 41.061 41.1141 41.7948 40.4402L42.1246 40.1342L42.5971 40.2107C43.0624 40.2797 43.5335 40.3155 44.0057 40.3178C46.1337 40.3178 48.1745 39.5923 49.6792 38.3008C51.1839 37.0093 52.0292 35.2576 52.0292 33.4312C52.0316 32.4453 51.7821 31.4711 51.2982 30.577L51.0843 30.1715L51.3874 29.8118C52.3868 28.6425 52.9241 27.2295 52.9208 25.7793C52.9208 23.9528 52.0754 22.2012 50.5707 20.9097C49.066 19.6182 47.0252 18.8926 44.8972 18.8926H44.3267L43.765 18.533L43.6134 18.2652C43.0901 16.8818 42.0698 15.6761 40.6989 14.8211C39.328 13.966 37.6768 13.5055 35.9822 13.5055C34.2875 13.5055 32.6364 13.966 31.2655 14.8211C29.8946 15.6761 28.8743 16.8818 28.3509 18.2652L28.2617 18.5177L27.6377 18.8926H27.0671C24.9392 18.8926 22.8983 19.6182 21.3936 20.9097C19.8889 22.2012 19.0436 23.9528 19.0436 25.7793C19.0403 27.2295 19.5776 28.6425 20.577 29.8118L20.8801 30.1715L20.6661 30.577C20.1822 31.4711 19.9327 32.4453 19.9351 33.4312C19.9351 35.2576 20.7804 37.0093 22.2851 38.3008C23.7898 39.5923 25.8307 40.3178 27.9586 40.3178C28.4219 40.3143 28.884 40.2785 29.3405 40.2107L29.813 40.1342L30.1428 40.4402C30.8797 41.1111 31.7646 41.6495 32.746 42.0242C32.8532 42.0648 32.95 42.1232 33.0308 42.196C33.1117 42.2688 33.1751 42.3545 33.2173 42.4483C33.2595 42.5421 33.2798 42.6421 33.2769 42.7427C33.2741 42.8432 33.2482 42.9423 33.2007 43.0342C33.1533 43.1262 33.0853 43.2093 33.0005 43.2787C32.9157 43.3481 32.8158 43.4025 32.7065 43.4387C32.5972 43.475 32.4807 43.4924 32.3636 43.4899C32.2464 43.4875 32.131 43.4652 32.0239 43.4245C30.9689 43.0266 30.0056 42.4694 29.18 41.7793C28.775 41.8244 28.367 41.8474 27.9586 41.8482C25.3578 41.8482 22.8634 40.9614 21.0244 39.3829C19.1853 37.8044 18.1521 35.6635 18.1521 33.4312C18.1546 32.3829 18.3875 31.3445 18.8385 30.3704C17.8839 29.1121 17.3389 27.6575 17.26 26.1574C17.1811 24.6574 17.5711 23.1665 18.3896 21.8394C19.2082 20.5124 20.4255 19.3974 21.9152 18.6101C23.405 17.8229 25.113 17.3921 26.8621 17.3623C27.5789 15.7826 28.8348 14.4255 30.4653 13.4687C32.0958 12.5119 34.0249 12 36 12C37.9751 12 39.9042 12.5119 41.5347 13.4687C43.1652 14.4255 44.4211 15.7826 45.1379 17.3623C46.887 17.3921 48.595 17.8229 50.0848 18.6101C51.5745 19.3974 52.7918 20.5124 53.6104 21.8394C54.4289 23.1665 54.8189 24.6574 54.74 26.1574C54.6611 27.6575 54.1161 29.1121 53.1615 30.3704C53.6003 31.3465 53.8211 32.3849 53.8123 33.4312C53.8123 35.6635 52.7791 37.8044 50.94 39.3829C49.1009 40.9614 46.6066 41.8482 44.0057 41.8482C43.5973 41.8474 43.1894 41.8244 42.7843 41.7793C41.9587 42.4694 40.9955 43.0266 39.9404 43.4245C39.8175 43.4726 39.6833 43.4962 39.5482 43.4933Z" fill="#416831"/>
<path d="M21.7716 28.0136H21.7181C21.6016 28.0031 21.4886 27.973 21.3857 27.925C21.2827 27.877 21.1918 27.8121 21.1181 27.7339C21.0444 27.6558 20.9894 27.5659 20.9562 27.4695C20.923 27.373 20.9123 27.2719 20.9246 27.1719C21.1784 25.1462 22.2796 23.2683 24.024 21.8865C25.7683 20.5047 28.0374 19.7128 30.4103 19.6578C30.9518 18.4815 31.7934 17.4242 32.8733 16.5635C33.9532 15.7028 35.2439 15.0607 36.6508 14.6841C36.8766 14.6244 37.1208 14.644 37.3298 14.7387C37.5387 14.8334 37.6953 14.9954 37.7652 15.1891C37.8352 15.3819 37.8136 15.5907 37.705 15.7699C37.5965 15.949 37.4098 16.0841 37.1857 16.1456C35.9659 16.4746 34.8554 17.049 33.9466 17.821C33.0379 18.593 32.3573 19.5402 31.9615 20.5837L31.8723 20.8362L31.2483 21.2112L30.6331 21.1882C28.6586 21.1871 26.753 21.811 25.2809 22.9404C23.8088 24.0698 22.8736 25.6254 22.6542 27.3097C22.6363 27.5005 22.5358 27.6787 22.3724 27.809C22.209 27.9393 21.9946 28.0123 21.7716 28.0136ZM35.9822 49.5C35.7457 49.5 35.519 49.4194 35.3518 49.2759C35.1846 49.1324 35.0907 48.9378 35.0907 48.7348V37.7085L40.6982 32.8879C40.8661 32.7438 41.0938 32.6628 41.3312 32.6628C41.5686 32.6628 41.7963 32.7438 41.9642 32.8879C42.132 33.032 42.2263 33.2274 42.2263 33.4311C42.2263 33.6349 42.132 33.8303 41.9642 33.9744L36.8737 38.336V48.7348C36.8737 48.9378 36.7797 49.1324 36.6126 49.2759C36.4454 49.4194 36.2186 49.5 35.9822 49.5Z" fill="#416831"/>
<path d="M35.9822 38.7872C35.8649 38.7878 35.7485 38.7685 35.6399 38.7304C35.5313 38.6923 35.4325 38.6362 35.3492 38.5653L30.0002 33.9742C29.9171 33.9028 29.8511 33.8182 29.8061 33.7249C29.7612 33.6317 29.738 33.5318 29.738 33.4309C29.738 33.33 29.7612 33.2301 29.8061 33.1369C29.8511 33.0437 29.9171 32.959 30.0002 32.8876C30.0833 32.8163 30.182 32.7597 30.2906 32.7211C30.3992 32.6825 30.5156 32.6626 30.6332 32.6626C30.7507 32.6626 30.8671 32.6825 30.9757 32.7211C31.0843 32.7597 31.183 32.8163 31.2661 32.8876L36.6152 37.4787C36.6987 37.5499 36.765 37.6345 36.8103 37.7278C36.8556 37.821 36.8789 37.921 36.8789 38.022C36.8789 38.123 36.8556 38.223 36.8103 38.3163C36.765 38.4095 36.6987 38.4942 36.6152 38.5653C36.5318 38.6362 36.4331 38.6923 36.3244 38.7304C36.2158 38.7685 36.0995 38.7878 35.9822 38.7872ZM44.0057 49.4998C43.8294 49.4998 43.657 49.4549 43.5104 49.3708C43.3638 49.2868 43.2496 49.1672 43.1821 49.0274C43.1146 48.8876 43.097 48.7338 43.1313 48.5853C43.1657 48.4369 43.2507 48.3006 43.3753 48.1935C43.5 48.0865 43.6589 48.0136 43.8318 47.9841C44.0047 47.9546 44.184 47.9698 44.3469 48.0277C44.5098 48.0856 44.649 48.1837 44.747 48.3095C44.8449 48.4353 44.8972 48.5833 44.8972 48.7346C44.8972 48.9375 44.8033 49.1322 44.6361 49.2757C44.4689 49.4192 44.2422 49.4998 44.0057 49.4998ZM40.4397 49.4998H27.9586C27.7222 49.4998 27.4954 49.4192 27.3283 49.2757C27.1611 49.1322 27.0671 48.9375 27.0671 48.7346C27.0671 48.5317 27.1611 48.337 27.3283 48.1935C27.4954 48.05 27.7222 47.9694 27.9586 47.9694H40.4397C40.6761 47.9694 40.9029 48.05 41.0701 48.1935C41.2373 48.337 41.3312 48.5317 41.3312 48.7346C41.3312 48.9375 41.2373 49.1322 41.0701 49.2757C40.9029 49.4192 40.6761 49.4998 40.4397 49.4998Z" fill="#416831"/>
<line x1="71.5" y1="9" x2="71.5" y2="54" stroke="#406732"/>
</svg>
