<svg width="359" height="133" viewBox="0 0 359 133" fill="none" xmlns="http://www.w3.org/2000/svg">
<path d="M312.547 0H20C8.95431 0 0 8.95431 0 20V113C0 124.046 8.95428 133 20 133H312.547C323.593 133 332.547 124.046 332.547 113V20C332.547 8.9543 323.593 0 312.547 0Z" fill="white"/>
<path d="M149.76 59.3385V26.1908H161.626V29.6283H154.03V40.5957H160.19V43.8695H154.03V56.0237H161.701V59.3385H149.76ZM170.779 59.6658C168.991 59.6658 167.63 59.2838 166.698 58.52C165.791 57.7287 165.174 56.6238 164.846 55.2052C164.544 53.7866 164.393 52.136 164.393 50.2535V44.8108C164.393 42.8192 164.557 41.1277 164.884 39.7363C165.212 38.3177 165.829 37.24 166.736 36.5034C167.668 35.7395 169.016 35.3575 170.779 35.3575C172.366 35.3575 173.588 35.644 174.445 36.2169C175.327 36.7626 175.931 37.5946 176.259 38.7132C176.586 39.8044 176.75 41.1686 176.75 42.8055V44.1969H173.084V42.7646C173.084 41.7278 173.021 40.9094 172.895 40.3092C172.77 39.7091 172.543 39.2724 172.215 38.9997C171.888 38.7269 171.422 38.5905 170.817 38.5905C170.162 38.5905 169.658 38.7541 169.305 39.0815C168.953 39.4089 168.713 39.9681 168.587 40.7594C168.487 41.5232 168.436 42.5737 168.436 43.9105V51.3585C168.436 53.3774 168.613 54.7279 168.965 55.4098C169.318 56.0918 169.948 56.4329 170.855 56.4329C171.535 56.4329 172.026 56.2692 172.329 55.9418C172.656 55.5872 172.858 55.0962 172.933 54.4686C173.034 53.8411 173.084 53.1319 173.084 52.3406V50.4172H176.75V52.0541C176.75 53.6364 176.574 55.0006 176.221 56.1465C175.893 57.2923 175.289 58.1654 174.407 58.7655C173.55 59.3657 172.341 59.6658 170.779 59.6658ZM186.354 59.6658C184.741 59.6658 183.469 59.3112 182.537 58.6018C181.605 57.8924 180.937 56.8831 180.534 55.5735C180.156 54.264 179.967 52.7226 179.967 50.9492V44.0741C179.967 42.3007 180.156 40.7594 180.534 39.4498C180.937 38.1403 181.605 37.1309 182.537 36.4215C183.469 35.7121 184.741 35.3575 186.354 35.3575C187.966 35.3575 189.225 35.7121 190.132 36.4215C191.066 37.1309 191.719 38.1403 192.097 39.4498C192.502 40.7594 192.702 42.3007 192.702 44.0741V50.9492C192.702 52.7226 192.502 54.264 192.097 55.5735C191.719 56.8831 191.066 57.8924 190.132 58.6018C189.225 59.3112 187.966 59.6658 186.354 59.6658ZM186.354 56.4329C187.134 56.4329 187.676 56.1874 187.979 55.6963C188.306 55.2052 188.495 54.5642 188.545 53.7729C188.621 52.9545 188.659 52.1088 188.659 51.2357V43.8286C188.659 42.9283 188.621 42.0826 188.545 41.2914C188.495 40.5001 188.306 39.8591 187.979 39.368C187.676 38.8497 187.134 38.5905 186.354 38.5905C185.573 38.5905 185.018 38.8497 184.691 39.368C184.363 39.8591 184.162 40.5001 184.086 41.2914C184.036 42.0826 184.011 42.9283 184.011 43.8286V51.2357C184.011 52.1088 184.036 52.9545 184.086 53.7729C184.162 54.5642 184.363 55.2052 184.691 55.6963C185.018 56.1874 185.573 56.4329 186.354 56.4329ZM204.409 59.7068C202.244 59.7068 200.554 59.2157 199.345 58.2335C198.162 57.2514 197.331 55.9281 196.851 54.264C196.398 52.5999 196.171 50.7446 196.171 48.6985V36.9945C196.171 34.7574 196.398 32.8066 196.851 31.1425C197.331 29.4783 198.162 28.196 199.345 27.2957C200.554 26.3682 202.244 25.9043 204.409 25.9043C206.325 25.9043 207.837 26.2863 208.944 27.0501C210.077 27.814 210.884 28.9054 211.362 30.324C211.867 31.7426 212.118 33.4479 212.118 35.4394V38.0585H208.075V35.7258C208.075 34.4981 208.012 33.4204 207.886 32.4929C207.785 31.538 207.483 30.8014 206.979 30.2831C206.476 29.7648 205.631 29.5055 204.447 29.5055C203.238 29.5055 202.357 29.792 201.802 30.3649C201.248 30.9106 200.883 31.7017 200.706 32.7385C200.554 33.7478 200.479 34.9346 200.479 36.2988V49.4351C200.479 51.0992 200.605 52.4225 200.857 53.4046C201.11 54.3595 201.526 55.0415 202.104 55.4508C202.684 55.86 203.464 56.0646 204.447 56.0646C205.607 56.0646 206.438 55.7919 206.941 55.2461C207.445 54.6732 207.761 53.8957 207.886 52.9135C208.012 51.9314 208.075 50.7855 208.075 49.476V47.0206H212.118V49.476C212.118 51.4949 211.891 53.2818 211.438 54.8369C210.984 56.3648 210.204 57.5651 209.095 58.4381C207.988 59.2838 206.425 59.7068 204.409 59.7068ZM221.855 59.6658C220.243 59.6658 218.971 59.3112 218.038 58.6018C217.106 57.8924 216.439 56.8831 216.035 55.5735C215.657 54.264 215.468 52.7226 215.468 50.9492V44.0741C215.468 42.3007 215.657 40.7594 216.035 39.4498C216.439 38.1403 217.106 37.1309 218.038 36.4215C218.971 35.7121 220.243 35.3575 221.855 35.3575C223.468 35.3575 224.727 35.7121 225.633 36.4215C226.567 37.1309 227.221 38.1403 227.599 39.4498C228.003 40.7594 228.203 42.3007 228.203 44.0741V50.9492C228.203 52.7226 228.003 54.264 227.599 55.5735C227.221 56.8831 226.567 57.8924 225.633 58.6018C224.727 59.3112 223.468 59.6658 221.855 59.6658ZM221.855 56.4329C222.637 56.4329 223.177 56.1874 223.479 55.6963C223.808 55.2052 223.997 54.5642 224.046 53.7729C224.122 52.9545 224.16 52.1088 224.16 51.2357V43.8286C224.16 42.9283 224.122 42.0826 224.046 41.2914C223.997 40.5001 223.808 39.8591 223.479 39.368C223.177 38.8497 222.637 38.5905 221.855 38.5905C221.074 38.5905 220.521 38.8497 220.192 39.368C219.865 39.8591 219.663 40.5001 219.587 41.2914C219.538 42.0826 219.512 42.9283 219.512 43.8286V51.2357C219.512 52.1088 219.538 52.9545 219.587 53.7729C219.663 54.5642 219.865 55.2052 220.192 55.6963C220.521 56.1874 221.074 56.4329 221.855 56.4329ZM231.899 59.3385V35.6849H235.942V38.0175C236.674 37.2809 237.48 36.6534 238.361 36.1351C239.243 35.6168 240.213 35.3575 241.271 35.3575C242.153 35.3575 242.82 35.6031 243.274 36.0941C243.754 36.5852 244.08 37.1991 244.256 37.9357C244.458 38.6723 244.558 39.4226 244.558 40.1865V59.3385H240.515V41.4551C240.515 40.6094 240.402 39.9546 240.175 39.4908C239.948 39.0269 239.483 38.7951 238.777 38.7951C238.323 38.7951 237.845 38.9451 237.341 39.2452C236.863 39.518 236.396 39.8591 235.942 40.2683V59.3385H231.899ZM249.79 59.3385V38.9178H247.183V35.6849H249.79V34.4572C249.79 32.984 249.892 31.7291 250.093 30.6923C250.319 29.6283 250.773 28.8098 251.453 28.2369C252.133 27.664 253.154 27.3775 254.514 27.3775C255.019 27.3775 255.459 27.4047 255.837 27.4594C256.241 27.4866 256.681 27.5549 257.159 27.664V30.856C256.933 30.8014 256.681 30.7604 256.404 30.7332C256.128 30.6786 255.874 30.6514 255.648 30.6514C254.867 30.6514 254.363 30.9378 254.136 31.5108C253.936 32.0565 253.834 32.7931 253.834 33.7206V35.6849H257.159V38.9178H253.834V59.3385H249.79ZM265.365 59.6658C263.752 59.6658 262.48 59.3112 261.549 58.6018C260.615 57.8924 259.948 56.8831 259.546 55.5735C259.168 54.264 258.979 52.7226 258.979 50.9492V44.0741C258.979 42.3007 259.168 40.7594 259.546 39.4498C259.948 38.1403 260.615 37.1309 261.549 36.4215C262.48 35.7121 263.752 35.3575 265.365 35.3575C266.977 35.3575 268.237 35.7121 269.144 36.4215C270.076 37.1309 270.731 38.1403 271.109 39.4498C271.512 40.7594 271.714 42.3007 271.714 44.0741V50.9492C271.714 52.7226 271.512 54.264 271.109 55.5735C270.731 56.8831 270.076 57.8924 269.144 58.6018C268.237 59.3112 266.977 59.6658 265.365 59.6658ZM265.365 56.4329C266.146 56.4329 266.688 56.1874 266.99 55.6963C267.317 55.2052 267.506 54.5642 267.557 53.7729C267.633 52.9545 267.67 52.1088 267.67 51.2357V43.8286C267.67 42.9283 267.633 42.0826 267.557 41.2914C267.506 40.5001 267.317 39.8591 266.99 39.368C266.688 38.8497 266.146 38.5905 265.365 38.5905C264.583 38.5905 264.029 38.8497 263.703 39.368C263.374 39.8591 263.174 40.5001 263.098 41.2914C263.047 42.0826 263.022 42.9283 263.022 43.8286V51.2357C263.022 52.1088 263.047 52.9545 263.098 53.7729C263.174 54.5642 263.374 55.2052 263.703 55.6963C264.029 56.1874 264.583 56.4329 265.365 56.4329ZM275.523 59.3385V35.6849H279.567V39.0406C280.372 37.5946 281.178 36.6261 281.985 36.1351C282.79 35.644 283.597 35.3985 284.404 35.3985C284.504 35.3985 284.593 35.3985 284.668 35.3985C284.768 35.3985 284.895 35.4122 285.046 35.4394V40.2683C284.744 40.1318 284.39 40.0228 283.988 39.9409C283.61 39.8319 283.219 39.7772 282.816 39.7772C282.185 39.7772 281.607 39.9409 281.078 40.2683C280.574 40.5685 280.069 41.1686 279.567 42.0689V59.3385H275.523ZM293.369 59.6658C292.236 59.6658 291.317 59.434 290.611 58.9701C289.93 58.5063 289.428 57.8515 289.099 57.0058C288.797 56.1602 288.646 55.1643 288.646 54.0185V38.5905H286.34V35.6849H288.646V28.7689H292.689V35.6849H296.203V38.5905H292.689V53.732C292.689 54.6595 292.829 55.328 293.105 55.7372C293.382 56.1192 293.911 56.3101 294.692 56.3101C294.894 56.3101 295.121 56.2964 295.372 56.2692C295.65 56.242 295.914 56.2146 296.166 56.1874V59.4203C295.663 59.5021 295.196 59.5568 294.767 59.584C294.34 59.6386 293.874 59.6658 293.369 59.6658Z" fill="#406732"/>
<path d="M154.578 104.63C153.255 104.63 152.15 104.323 151.262 103.709C150.393 103.096 149.731 102.246 149.278 101.162C148.824 100.077 148.56 98.8191 148.484 97.3868L151.319 96.5581C151.375 97.4379 151.498 98.2871 151.687 99.1056C151.895 99.924 152.226 100.599 152.679 101.131C153.132 101.643 153.765 101.899 154.578 101.899C155.409 101.899 156.033 101.653 156.449 101.162C156.883 100.65 157.1 99.924 157.1 98.9828C157.1 97.8574 156.864 96.9571 156.392 96.2819C155.919 95.5862 155.324 94.8905 154.606 94.1948L150.752 90.5117C149.996 89.7956 149.439 89.018 149.08 88.1791C148.721 87.3197 148.541 86.2659 148.541 85.0178C148.541 83.1967 149.023 81.7849 149.987 80.7822C150.95 79.7796 152.263 79.2783 153.926 79.2783C154.833 79.2783 155.627 79.4113 156.307 79.6773C157.006 79.9229 157.582 80.3116 158.036 80.8436C158.508 81.3756 158.876 82.0509 159.141 82.8693C159.424 83.6673 159.613 84.6086 159.708 85.693L156.987 86.491C156.93 85.6726 156.817 84.9257 156.647 84.2505C156.477 83.5548 156.175 83.0023 155.74 82.5931C155.324 82.1634 154.72 81.9486 153.926 81.9486C153.132 81.9486 152.509 82.1839 152.055 82.6545C151.621 83.1046 151.404 83.7799 151.404 84.6802C151.404 85.4372 151.517 86.0613 151.744 86.5524C151.989 87.0435 152.377 87.5448 152.906 88.0563L156.789 91.7394C157.658 92.5579 158.423 93.54 159.084 94.6859C159.746 95.8112 160.076 97.1515 160.076 98.7066C160.076 99.9342 159.84 100.998 159.368 101.899C158.895 102.778 158.244 103.454 157.412 103.924C156.6 104.395 155.655 104.63 154.578 104.63ZM166.812 104.599C165.603 104.599 164.648 104.333 163.949 103.801C163.25 103.269 162.75 102.512 162.447 101.53C162.164 100.548 162.022 99.392 162.022 98.062V92.9057C162.022 91.5757 162.164 90.4196 162.447 89.4375C162.75 88.4553 163.25 87.6982 163.949 87.1662C164.648 86.6342 165.603 86.3682 166.812 86.3682C168.021 86.3682 168.966 86.6342 169.646 87.1662C170.345 87.6982 170.836 88.4553 171.12 89.4375C171.422 90.4196 171.573 91.5757 171.573 92.9057V98.062C171.573 99.392 171.422 100.548 171.12 101.53C170.836 102.512 170.345 103.269 169.646 103.801C168.966 104.333 168.021 104.599 166.812 104.599ZM166.812 102.175C167.398 102.175 167.804 101.991 168.031 101.622C168.276 101.254 168.418 100.773 168.456 100.18C168.512 99.5659 168.541 98.9316 168.541 98.2769V92.7216C168.541 92.0463 168.512 91.412 168.456 90.8186C168.418 90.2252 168.276 89.7444 168.031 89.3761C167.804 88.9873 167.398 88.7929 166.812 88.7929C166.226 88.7929 165.81 88.9873 165.565 89.3761C165.319 89.7444 165.168 90.2252 165.111 90.8186C165.074 91.412 165.055 92.0463 165.055 92.7216V98.2769C165.055 98.9316 165.074 99.5659 165.111 100.18C165.168 100.773 165.319 101.254 165.565 101.622C165.81 101.991 166.226 102.175 166.812 102.175ZM174.629 104.354V79.4932H177.661V104.354H174.629ZM183.174 104.599C182.532 104.599 182.031 104.415 181.672 104.047C181.313 103.679 181.058 103.218 180.907 102.666C180.775 102.113 180.709 101.551 180.709 100.978V86.6138H183.741V99.9956C183.741 100.63 183.826 101.131 183.996 101.5C184.166 101.847 184.516 102.021 185.045 102.021C185.385 102.021 185.735 101.919 186.094 101.714C186.471 101.489 186.83 101.223 187.171 100.916V86.6138H190.204V104.354H187.171V102.604C186.642 103.157 186.037 103.628 185.357 104.016C184.695 104.405 183.968 104.599 183.174 104.599ZM197.669 104.599C196.819 104.599 196.129 104.426 195.6 104.078C195.09 103.73 194.712 103.239 194.467 102.604C194.24 101.97 194.126 101.223 194.126 100.364V88.7929H192.398V86.6138H194.126V81.4268H197.159V86.6138H199.795V88.7929H197.159V100.149C197.159 100.845 197.263 101.346 197.471 101.653C197.679 101.939 198.075 102.083 198.661 102.083C198.812 102.083 198.982 102.072 199.171 102.052C199.379 102.032 199.578 102.011 199.767 101.991V104.415C199.389 104.477 199.039 104.518 198.718 104.538C198.397 104.579 198.047 104.599 197.669 104.599ZM202.221 104.354V86.6138H205.254V104.354H202.221ZM202.221 83.9742V80.5367H205.254V83.9742H202.221ZM213.006 104.599C211.797 104.599 210.843 104.333 210.144 103.801C209.444 103.269 208.944 102.512 208.641 101.53C208.358 100.548 208.216 99.392 208.216 98.062V92.9057C208.216 91.5757 208.358 90.4196 208.641 89.4375C208.944 88.4553 209.444 87.6982 210.144 87.1662C210.843 86.6342 211.797 86.3682 213.006 86.3682C214.215 86.3682 215.16 86.6342 215.84 87.1662C216.539 87.6982 217.031 88.4553 217.314 89.4375C217.616 90.4196 217.768 91.5757 217.768 92.9057V98.062C217.768 99.392 217.616 100.548 217.314 101.53C217.031 102.512 216.539 103.269 215.84 103.801C215.16 104.333 214.215 104.599 213.006 104.599ZM213.006 102.175C213.592 102.175 213.998 101.991 214.225 101.622C214.47 101.254 214.612 100.773 214.65 100.18C214.707 99.5659 214.735 98.9316 214.735 98.2769V92.7216C214.735 92.0463 214.707 91.412 214.65 90.8186C214.612 90.2252 214.47 89.7444 214.225 89.3761C213.998 88.9873 213.592 88.7929 213.006 88.7929C212.42 88.7929 212.005 88.9873 211.759 89.3761C211.513 89.7444 211.362 90.2252 211.306 90.8186C211.268 91.412 211.249 92.0463 211.249 92.7216V98.2769C211.249 98.9316 211.268 99.5659 211.306 100.18C211.362 100.773 211.513 101.254 211.759 101.622C212.005 101.991 212.42 102.175 213.006 102.175ZM220.539 104.354V86.6138H223.572V88.3632C224.12 87.8108 224.725 87.3402 225.386 86.9514C226.047 86.5626 226.775 86.3682 227.568 86.3682C228.23 86.3682 228.73 86.5524 229.07 86.9207C229.429 87.289 229.675 87.7494 229.807 88.3019C229.958 88.8543 230.034 89.417 230.034 89.9899V104.354H227.001V90.9414C227.001 90.3071 226.916 89.816 226.746 89.4682C226.576 89.1203 226.227 88.9464 225.698 88.9464C225.358 88.9464 224.999 89.0589 224.621 89.284C224.262 89.4886 223.912 89.7444 223.572 90.0513V104.354H220.539ZM236.793 104.599C235.451 104.599 234.374 104.149 233.562 103.249C232.749 102.328 232.286 101.121 232.173 99.6273L234.695 98.7986C234.847 99.924 235.102 100.773 235.461 101.346C235.82 101.899 236.349 102.175 237.048 102.175C237.596 102.175 238.011 102.011 238.295 101.684C238.578 101.336 238.72 100.875 238.72 100.303C238.72 99.791 238.616 99.3306 238.408 98.9214C238.2 98.5122 237.86 98.0927 237.388 97.663L234.582 95.0542C234.015 94.5222 233.533 93.9288 233.137 93.274C232.759 92.6192 232.57 91.7701 232.57 90.7266C232.57 89.7853 232.74 88.9976 233.08 88.3632C233.439 87.7085 233.93 87.2174 234.554 86.89C235.196 86.5422 235.942 86.3682 236.793 86.3682C238.096 86.3682 239.088 86.8286 239.769 87.7494C240.468 88.6497 240.865 89.7444 240.959 91.0335L238.918 91.8622C238.843 91.2483 238.729 90.7163 238.578 90.2662C238.427 89.7956 238.219 89.4375 237.955 89.1919C237.69 88.9259 237.341 88.7929 236.906 88.7929C236.415 88.7929 236.018 88.9771 235.716 89.3454C235.432 89.6932 235.291 90.1127 235.291 90.6038C235.291 90.9107 235.347 91.2176 235.461 91.5246C235.593 91.811 235.81 92.0975 236.112 92.3839L239.003 95.269C239.4 95.6578 239.769 96.0772 240.109 96.5274C240.468 96.9776 240.761 97.4891 240.987 98.062C241.214 98.6349 241.327 99.2999 241.327 100.057C241.327 101.06 241.138 101.899 240.761 102.574C240.383 103.249 239.854 103.761 239.173 104.108C238.493 104.436 237.7 104.599 236.793 104.599Z" fill="#4BB559"/>
<path d="M68.021 116.631C94.1092 116.631 115.258 93.7286 115.258 65.4771C115.258 37.2256 94.1092 14.3232 68.021 14.3232C41.9328 14.3232 20.7842 37.2256 20.7842 65.4771C20.7842 93.7286 41.9328 116.631 68.021 116.631Z" fill="#406732"/>
<path d="M68.021 111.515C91.5003 111.515 110.534 90.9033 110.534 65.4769C110.534 40.0506 91.5003 19.4385 68.021 19.4385C44.5416 19.4385 25.5078 40.0506 25.5078 65.4769C25.5078 90.9033 44.5416 111.515 68.021 111.515Z" fill="white"/>
<path d="M74.7256 88.9938C74.3996 88.992 74.0815 88.9022 73.8094 88.7354C73.5373 88.5687 73.323 88.3321 73.1926 88.0545C73.1029 87.8664 73.054 87.6636 73.0487 87.458C73.0432 87.2522 73.0815 87.0475 73.1613 86.8556C73.241 86.6637 73.3608 86.4883 73.5137 86.3394C73.6663 86.1904 73.8492 86.0709 74.0518 85.9878C75.9105 85.2283 77.584 84.1256 78.9705 82.7467L79.5936 82.1206L80.4864 82.2771C81.3656 82.4183 82.2557 82.4916 83.1479 82.4963C87.1687 82.4963 91.0247 81.0118 93.8678 78.3692C96.7109 75.7266 98.3081 72.1423 98.3081 68.4052C98.3126 66.3879 97.8412 64.3946 96.9269 62.5651L96.5227 61.7354L97.0954 60.9994C98.9838 58.6068 99.999 55.7156 99.9927 52.7483C99.9927 49.011 98.3954 45.4269 95.5523 42.7843C92.7092 40.1417 88.8532 38.657 84.8324 38.657H83.7544L82.6931 37.9212L82.4067 37.3733C81.4179 34.5426 79.4901 32.0756 76.8998 30.3261C74.3095 28.5764 71.1896 27.6342 67.9877 27.6342C64.7856 27.6342 61.6659 28.5764 59.0756 30.3261C56.4853 32.0756 54.5575 34.5426 53.5686 37.3733L53.4 37.8899L52.221 38.657H51.1429C47.1223 38.657 43.266 40.1417 40.4229 42.7843C37.5798 45.4269 35.9827 49.011 35.9827 52.7483C35.9764 55.7156 36.9917 58.6068 38.88 60.9994L39.4527 61.7354L39.0483 62.5651C38.134 64.3946 37.6626 66.3879 37.6671 68.4052C37.6671 72.1423 39.2643 75.7266 42.1074 78.3692C44.9505 81.0118 48.8067 82.4963 52.8273 82.4963C53.7027 82.4891 54.5758 82.4159 55.4384 82.2771L56.3312 82.1206L56.9543 82.7467C58.3467 84.1195 60.0187 85.2211 61.873 85.9878C62.0755 86.0709 62.2584 86.1904 62.4111 86.3394C62.564 86.4883 62.6838 86.6637 62.7635 86.8556C62.8432 87.0475 62.8816 87.2522 62.8761 87.458C62.8708 87.6636 62.8219 87.8664 62.7321 88.0545C62.6426 88.2427 62.5141 88.4127 62.3539 88.5547C62.1936 88.6967 62.0049 88.8081 61.7984 88.8821C61.5918 88.9564 61.3717 88.992 61.1505 88.9869C60.929 88.982 60.711 88.9363 60.5086 88.8531C58.5152 88.0389 56.6951 86.8988 55.1351 85.4867C54.3699 85.579 53.599 85.6261 52.8273 85.6277C47.9132 85.6277 43.2001 83.8132 39.7253 80.5833C36.2504 77.3535 34.2982 72.9729 34.2982 68.4052C34.3029 66.2603 34.743 64.1355 35.5951 62.1424C33.7914 59.5677 32.7617 56.5914 32.6126 53.5219C32.4635 50.4527 33.2004 47.4021 34.747 44.6866C36.2937 41.9714 38.5937 39.6899 41.4085 38.079C44.2234 36.4683 47.4506 35.5868 50.7555 35.5258C52.1099 32.2935 54.4829 29.5167 57.5637 27.5589C60.6445 25.6011 64.2894 24.5537 68.0213 24.5537C71.7532 24.5537 75.3982 25.6011 78.479 27.5589C81.5598 29.5167 83.9328 32.2935 85.2872 35.5258C88.592 35.5868 91.8193 36.4683 94.6342 38.079C97.449 39.6899 99.749 41.9714 101.296 44.6866C102.842 47.4021 103.579 50.4527 103.43 53.5219C103.281 56.5914 102.251 59.5677 100.448 62.1424C101.277 64.1396 101.694 66.2643 101.677 68.4052C101.677 72.9729 99.725 77.3535 96.2501 80.5833C92.7751 83.8132 88.0622 85.6277 83.1479 85.6277C82.3762 85.6261 81.6055 85.579 80.8401 85.4867C79.2802 86.8988 77.4602 88.0389 75.4666 88.8531C75.2344 88.9515 74.9808 88.9998 74.7256 88.9938Z" fill="#416831"/>
<path d="M41.1371 57.3202H41.036C40.8159 57.2987 40.6023 57.2371 40.4079 57.1389C40.2133 57.0407 40.0415 56.9079 39.9023 56.7479C39.763 56.5881 39.6591 56.4041 39.5964 56.2069C39.5337 56.0094 39.5134 55.8026 39.5367 55.598C40.0162 51.4531 42.0969 47.6106 45.3929 44.7832C48.6887 41.9558 52.9761 40.3355 57.4597 40.223C58.4828 37.8161 60.073 35.6527 62.1134 33.8915C64.1539 32.1304 66.5926 30.8166 69.2509 30.046C69.6776 29.9238 70.139 29.9639 70.5339 30.1577C70.9286 30.3515 71.2245 30.683 71.3566 31.0793C71.4888 31.4738 71.448 31.901 71.2428 32.2677C71.0378 32.6342 70.685 32.9106 70.2616 33.0365C67.9568 33.7096 65.8586 34.8849 64.1414 36.4646C62.4244 38.0442 61.1385 39.9823 60.3906 42.1175L60.2221 42.6341L59.043 43.4015L57.8806 43.3544C54.1499 43.3521 50.5493 44.6287 47.7678 46.9397C44.9863 49.2506 43.2193 52.4336 42.8047 55.8799C42.7709 56.2703 42.581 56.635 42.2723 56.9016C41.9635 57.1682 41.5584 57.3175 41.1371 57.3202ZM67.9876 101.285C67.5408 101.285 67.1124 101.12 66.7965 100.826C66.4806 100.533 66.3032 100.134 66.3032 99.719V77.1575L76.8984 67.2938C77.2156 66.9989 77.6459 66.8332 78.0944 66.8332C78.543 66.8332 78.9732 66.9989 79.2905 67.2938C79.6075 67.5886 79.7857 67.9884 79.7857 68.4052C79.7857 68.8223 79.6075 69.2221 79.2905 69.5169L69.6721 78.4414V99.719C69.6721 100.134 69.4945 100.533 69.1787 100.826C68.8628 101.12 68.4343 101.285 67.9876 101.285Z" fill="#416831"/>
<path d="M67.9874 79.3644C67.7658 79.3656 67.5459 79.3261 67.3407 79.2482C67.1355 79.1702 66.9488 79.0554 66.7914 78.9103L56.6846 69.5163C56.5276 69.3702 56.4029 69.1971 56.3178 69.0061C56.233 68.8154 56.1892 68.611 56.1892 68.4046C56.1892 68.1981 56.233 67.9937 56.3178 67.803C56.4029 67.6123 56.5276 67.439 56.6846 67.2929C56.8416 67.147 57.0281 67.0312 57.2333 66.9522C57.4385 66.8732 57.6584 66.8325 57.8806 66.8325C58.1026 66.8325 58.3226 66.8732 58.5278 66.9522C58.733 67.0312 58.9195 67.147 59.0765 67.2929L69.1835 76.687C69.3412 76.8327 69.4665 77.0058 69.5521 77.1967C69.6377 77.3874 69.6817 77.592 69.6817 77.7987C69.6817 78.0053 69.6377 78.21 69.5521 78.4009C69.4665 78.5916 69.3412 78.7649 69.1835 78.9103C69.0259 79.0554 68.8394 79.1702 68.634 79.2482C68.4288 79.3261 68.2091 79.3656 67.9874 79.3644ZM83.1476 101.284C82.8145 101.284 82.4888 101.192 82.2118 101.02C81.9348 100.848 81.719 100.603 81.5914 100.317C81.4639 100.031 81.4307 99.7167 81.4955 99.4128C81.5605 99.1092 81.7211 98.8303 81.9565 98.6111C82.1921 98.3922 82.4923 98.243 82.819 98.1827C83.1457 98.1223 83.4845 98.1534 83.7923 98.2719C84.1001 98.3903 84.3631 98.5911 84.5483 98.8485C84.7333 99.1059 84.8321 99.4087 84.8321 99.7183C84.8321 100.133 84.6547 100.532 84.3387 100.825C84.0228 101.119 83.5945 101.284 83.1476 101.284ZM76.4098 101.284H52.827C52.3804 101.284 51.9518 101.119 51.6361 100.825C51.3202 100.532 51.1426 100.133 51.1426 99.7183C51.1426 99.3031 51.3202 98.9048 51.6361 98.6111C51.9518 98.3175 52.3804 98.1526 52.827 98.1526H76.4098C76.8564 98.1526 77.285 98.3175 77.6009 98.6111C77.9168 98.9048 78.0942 99.3031 78.0942 99.7183C78.0942 100.133 77.9168 100.532 77.6009 100.825C77.285 101.119 76.8564 101.284 76.4098 101.284Z" fill="#416831"/>
<path d="M135.098 18.4155V110.492" stroke="#406732"/>
</svg>
